<?xml version='1.0' encoding='utf-8'?>
<svg xmlns="http://www.w3.org/2000/svg" version="1.1" x="0px" y="0px" viewBox="0 0 416.99999999999994 388.09999999999997" style="enable-background:new 0 0 926.6 434;" xml:space="preserve" preserveAspectRatio="xMidYMid meet">
<g transform="translate(-472.3,-15.1)"><style type="text/css">
	.st0{fill:#FFFFFF;stroke:#005075;stroke-width:0.75;stroke-linecap:round;stroke-linejoin:round;stroke-miterlimit:10;}
	.st1{fill:#FFFFFF;stroke:#005075;stroke-width:0.5;stroke-linecap:round;stroke-linejoin:round;stroke-miterlimit:10;}
	.st2{fill:#43A88E;}
	.st3{fill:none;stroke:#005075;stroke-width:0.75;stroke-linecap:round;stroke-linejoin:round;stroke-miterlimit:10;}
	.st4{fill:#FFFFFF;stroke:#C6C6C5;stroke-width:0.5;stroke-linecap:round;stroke-linejoin:round;stroke-miterlimit:10;}
	.st5{opacity:0.3;}
	.st6{fill:#C6C6C5;}
	.st7{fill:none;stroke:#C6C6C5;stroke-width:0.5;stroke-linecap:round;stroke-linejoin:round;stroke-miterlimit:10;}
	.st8{fill:none;stroke:#005075;stroke-width:0.5;stroke-linecap:round;stroke-linejoin:round;stroke-miterlimit:10;}
	.st9{fill:#FFFFFF;}
	.st10{fill:#005075;}
	.st11{fill:none;stroke:#005075;stroke-width:0.25;stroke-linecap:round;stroke-linejoin:round;stroke-miterlimit:10;}
	.st12{fill:#FFFFFF;stroke:#005075;stroke-width:0.25;stroke-linecap:round;stroke-linejoin:round;stroke-miterlimit:10;}
	.st13{fill:url(#SVGID_1_);}
	.st14{fill:url(#SVGID_2_);}
	.st15{fill:#F7F7F7;stroke:#C6C6C5;stroke-width:0.5;stroke-linecap:round;stroke-linejoin:round;stroke-miterlimit:10;}
	.st16{fill:none;stroke:#005075;stroke-width:0.5;stroke-linecap:round;stroke-linejoin:round;}
	.st17{fill:none;stroke:#005075;stroke-width:0.5;stroke-linecap:round;stroke-linejoin:round;stroke-dasharray:3.1817,3.1817;}
	.st18{fill:none;stroke:#005075;stroke-width:0.5;stroke-linecap:round;stroke-linejoin:round;stroke-dasharray:3.1647,3.1647;}
	
		.st19{fill:none;stroke:#005075;stroke-width:0.5;stroke-linecap:round;stroke-linejoin:round;stroke-miterlimit:10;stroke-dasharray:3;}
</style>
<g id="Capa_2">
	<polygon class="st0" points="777.8,140.9 786.2,135.9 811,167 811,168.4 802.7,173.4 777.8,142.2  " />
	<polygon class="st0" points="777.8,140.9 786.2,135.9 811,167 802.7,172  " />
	<polygon class="st0" points="811,168.4 811,167 802.7,172 802.7,173.4  " />
	<path class="st1" d="M789.8,147.1l1.6-0.9c0.1-0.1,0.2,0,0.3,0.1l2.3,2.9c0.1,0.1,0.1,0.3-0.1,0.3l-1.6,0.9c-0.1,0.1-0.2,0-0.3-0.1   l-2.3-2.9C789.6,147.4,789.6,147.2,789.8,147.1z" />
	<path class="st1" d="M787.2,148.7l1.6-0.9c0.1-0.1,0.2,0,0.3,0.1l2.3,2.9c0.1,0.1,0.1,0.3-0.1,0.3l-1.6,0.9c-0.1,0.1-0.2,0-0.3-0.1   l-2.3-2.9C787,148.9,787.1,148.7,787.2,148.7z" />
	<path class="st1" d="M793,151.2l1.6-0.9c0.1-0.1,0.2,0,0.3,0.1l2.3,2.9c0.1,0.1,0.1,0.3-0.1,0.3l-1.6,0.9c-0.1,0.1-0.2,0-0.3-0.1   l-2.3-2.9C792.9,151.4,792.9,151.2,793,151.2z" />
	<path class="st1" d="M790.4,152.7l1.6-0.9c0.1-0.1,0.2,0,0.3,0.1l2.3,2.9c0.1,0.1,0.1,0.3-0.1,0.3l-1.6,0.9c-0.1,0.1-0.2,0-0.3-0.1   l-2.3-2.9C790.3,152.9,790.3,152.7,790.4,152.7z" />
	<path class="st1" d="M796.2,155.2l1.6-0.9c0.1-0.1,0.2,0,0.3,0.1l2.3,2.9c0.1,0.1,0.1,0.3-0.1,0.3l-1.6,0.9c-0.1,0.1-0.2,0-0.3-0.1   l-2.3-2.9C796.1,155.5,796.1,155.3,796.2,155.2z" />
	<path class="st1" d="M793.6,156.8l1.6-0.9c0.1-0.1,0.2,0,0.3,0.1l2.3,2.9c0.1,0.1,0.1,0.3-0.1,0.3l-1.6,0.9c-0.1,0.1-0.2,0-0.3-0.1   l-2.3-2.9C793.5,157,793.5,156.8,793.6,156.8z" />
	
		<ellipse transform="matrix(0.6423 -0.7664 0.7664 0.6423 171.5047 653.6826)" class="st0" cx="786.1" cy="143.1" rx="1.8" ry="2.2" />
	<ellipse transform="matrix(0.6423 -0.7664 0.7664 0.6423 161.1812 673.299)" class="st0" cx="802" cy="164" rx="1.8" ry="2.2" />
</g>
<g id="Capa_1">
	<g id="Capa_9">
		<ellipse class="st2" cx="511.7" cy="378.3" rx="39.4" ry="21.4" />
		<ellipse class="st2" cx="859.8" cy="239.2" rx="29.5" ry="16" />
		<polyline class="st3" points="523.1,366.6 805.6,203.3 852.4,229.4   " />
		<polyline class="st3" points="646.1,295.6 688.9,319.9 688.9,309.1   " />
		<polyline class="st3" points="751.1,234.8 793.9,259.1 793.9,248.3   " />
	</g>
	<g id="Capa_3">
		<g>
			<path class="st4" d="M694.9,299.5l-1.2-1.5c-1.3-1.6-3.5-2-5.3-1l-13.2,7.7l1,1.2l-1,0.6l6.4,8l12.2-7.1c1.2-0.7,1.9-1.9,2-3.1     c0-0.4,0-2,0-2.3C695.7,301.1,695.4,300.3,694.9,299.5z" />
			<path class="st4" d="M675.2,304.8l13.2-7.7c1.8-1,4-0.6,5.3,1l1.2,1.5c1.6,2,1,4.8-1.1,6.1l-12.2,7.1L675.2,304.8z" />
		</g>
		<g>
			<path class="st4" d="M799.6,240.5l-1.2-1.5c-1.3-1.6-3.5-2-5.3-1l-13.2,7.7l1,1.2l-1,0.6l6.4,8l12.2-7.1c1.2-0.7,1.9-1.9,2-3.1     c0-0.4,0-2,0-2.3C800.4,242.1,800.1,241.3,799.6,240.5z" />
			<path class="st4" d="M779.9,245.8l13.2-7.7c1.8-1,4-0.6,5.3,1l1.2,1.5c1.6,2,1,4.8-1.1,6.1l-12.2,7.1L779.9,245.8z" />
		</g>
		<g>
			<g>
				<g>
					<polygon class="st4" points="600.1,342.8 675,299.2 704.2,335.9 704.2,337.5 629.4,381 600.1,344.3      " />
					<polygon class="st4" points="600.1,342.8 675,299.2 704.2,335.9 629.4,379.5      " />
					<g class="st5">
						<path class="st6" d="M672.2,315.9l8.6-5.1c0.5-0.3,1.2-0.2,1.6,0.3l4.5,5.6c0.5,0.6,0.3,1.5-0.3,1.8l-8.6,5.1        c-0.5,0.3-1.2,0.2-1.6-0.3l-4.5-5.6C671.4,317.2,671.5,316.3,672.2,315.9z" />
						<path class="st6" d="M659.9,323l8.6-5.1c0.5-0.3,1.2-0.2,1.6,0.3l4.5,5.6c0.5,0.6,0.3,1.5-0.3,1.8l-8.6,5.1        c-0.5,0.3-1.2,0.2-1.6-0.3l-4.5-5.6C659.1,324.3,659.2,323.4,659.9,323z" />
						<path class="st6" d="M647.6,330.2l8.6-5.1c0.5-0.3,1.2-0.2,1.6,0.3l4.5,5.6c0.5,0.6,0.3,1.5-0.3,1.8l-8.6,5.1        c-0.5,0.3-1.2,0.2-1.6-0.3l-4.5-5.6C646.8,331.4,647,330.6,647.6,330.2z" />
						<path class="st6" d="M635.3,337.3l8.6-5.1c0.5-0.3,1.2-0.2,1.6,0.3l4.5,5.6c0.5,0.6,0.3,1.5-0.3,1.8l-8.6,5.1        c-0.5,0.3-1.2,0.2-1.6-0.3l-4.5-5.6C634.5,338.6,634.7,337.7,635.3,337.3z" />
						<path class="st6" d="M623.1,344.4l8.6-5.1c0.5-0.3,1.2-0.2,1.6,0.3l4.5,5.6c0.5,0.6,0.3,1.5-0.3,1.8l-8.6,5.1        c-0.5,0.3-1.2,0.2-1.6-0.3l-4.5-5.6C622.3,345.7,622.4,344.8,623.1,344.4z" />
						<path class="st6" d="M610.8,351.6l8.6-5.1c0.5-0.3,1.2-0.2,1.6,0.3l4.5,5.6c0.5,0.6,0.3,1.5-0.3,1.8l-8.6,5.1        c-0.5,0.3-1.2,0.2-1.6-0.3l-4.5-5.6C610,352.8,610.1,352,610.8,351.6z" />
					</g>
					<g class="st5">
						<path class="st6" d="M679.1,324.6l8.6-5.1c0.5-0.3,1.2-0.2,1.6,0.3l4.5,5.6c0.5,0.6,0.3,1.5-0.3,1.8l-8.6,5.1        c-0.5,0.3-1.2,0.2-1.6-0.3l-4.5-5.6C678.3,325.8,678.5,325,679.1,324.6z" />
						<path class="st6" d="M666.8,331.7l8.6-5.1c0.5-0.3,1.2-0.2,1.6,0.3l4.5,5.6c0.5,0.6,0.3,1.5-0.3,1.8l-8.6,5.1        c-0.5,0.3-1.2,0.2-1.6-0.3l-4.5-5.6C666,333,666.2,332.1,666.8,331.7z" />
						<path class="st6" d="M654.6,338.9l8.6-5.1c0.5-0.3,1.2-0.2,1.6,0.3l4.5,5.6c0.5,0.6,0.3,1.5-0.3,1.8l-8.6,5.1        c-0.5,0.3-1.2,0.2-1.6-0.3l-4.5-5.6C653.8,340.1,653.9,339.2,654.6,338.9z" />
						<path class="st6" d="M642.3,346l8.6-5.1c0.5-0.3,1.2-0.2,1.6,0.3l4.5,5.6c0.5,0.6,0.3,1.5-0.3,1.8l-8.6,5.1        c-0.5,0.3-1.2,0.2-1.6-0.3l-4.5-5.6C641.5,347.2,641.6,346.4,642.3,346z" />
						<path class="st6" d="M630,353.1l8.6-5.1c0.5-0.3,1.2-0.2,1.6,0.3l4.5,5.6c0.5,0.6,0.3,1.5-0.3,1.8l-8.6,5.1        c-0.5,0.3-1.2,0.2-1.6-0.3l-4.5-5.6C629.2,354.4,629.4,353.5,630,353.1z" />
						<path class="st6" d="M617.7,360.3l8.6-5.1c0.5-0.3,1.2-0.2,1.6,0.3l4.5,5.6c0.5,0.6,0.3,1.5-0.3,1.8l-8.6,5.1        c-0.5,0.3-1.2,0.2-1.6-0.3l-4.5-5.6C616.9,361.5,617.1,360.6,617.7,360.3z" />
					</g>
					<g class="st5">
						<path class="st6" d="M686.1,333.3l8.6-5.1c0.5-0.3,1.2-0.2,1.6,0.3l4.5,5.6c0.5,0.6,0.3,1.5-0.3,1.8l-8.6,5.1        c-0.5,0.3-1.2,0.2-1.6-0.3l-4.5-5.6C685.3,334.5,685.4,333.6,686.1,333.3z" />
						<path class="st6" d="M673.8,340.4l8.6-5.1c0.5-0.3,1.2-0.2,1.6,0.3l4.5,5.6c0.5,0.6,0.3,1.5-0.3,1.8l-8.6,5.1        c-0.5,0.3-1.2,0.2-1.6-0.3l-4.5-5.6C673,341.6,673.1,340.8,673.8,340.4z" />
						<path class="st6" d="M661.5,347.5l8.6-5.1c0.5-0.3,1.2-0.2,1.6,0.3l4.5,5.6c0.5,0.6,0.3,1.5-0.3,1.8l-8.6,5.1        c-0.5,0.3-1.2,0.2-1.6-0.3l-4.5-5.6C660.7,348.8,660.9,347.9,661.5,347.5z" />
						<path class="st6" d="M649.2,354.7l8.6-5.1c0.5-0.3,1.2-0.2,1.6,0.3l4.5,5.6c0.5,0.6,0.3,1.5-0.3,1.8l-8.6,5.1        c-0.5,0.3-1.2,0.2-1.6-0.3l-4.5-5.6C648.4,355.9,648.6,355,649.2,354.7z" />
						<path class="st6" d="M637,361.8l8.6-5.1c0.5-0.3,1.2-0.2,1.6,0.3l4.5,5.6c0.5,0.6,0.3,1.5-0.3,1.8l-8.6,5.1        c-0.5,0.3-1.2,0.2-1.6-0.3l-4.5-5.6C636.2,363,636.3,362.2,637,361.8z" />
						<path class="st6" d="M624.7,368.9l8.6-5.1c0.5-0.3,1.2-0.2,1.6,0.3l4.5,5.6c0.5,0.6,0.3,1.5-0.3,1.8l-8.6,5.1        c-0.5,0.3-1.2,0.2-1.6-0.3l-4.5-5.6C623.9,370.2,624,369.3,624.7,368.9z" />
					</g>
					<g class="st5">
						<path class="st6" d="M665.2,307.2l8.6-5.1c0.5-0.3,1.2-0.2,1.6,0.3l4.5,5.6c0.5,0.6,0.3,1.5-0.3,1.8l-8.6,5.1        c-0.5,0.3-1.2,0.2-1.6-0.3l-4.5-5.6C664.4,308.5,664.6,307.6,665.2,307.2z" />
						<path class="st6" d="M652.9,314.4l8.6-5.1c0.5-0.3,1.2-0.2,1.6,0.3l4.5,5.6c0.5,0.6,0.3,1.5-0.3,1.8l-8.6,5.1        c-0.5,0.3-1.2,0.2-1.6-0.3l-4.5-5.6C652.1,315.6,652.3,314.8,652.9,314.4z" />
						<path class="st6" d="M640.7,321.5l8.6-5.1c0.5-0.3,1.2-0.2,1.6,0.3l4.5,5.6c0.5,0.6,0.3,1.5-0.3,1.8l-8.6,5.1        c-0.5,0.3-1.2,0.2-1.6-0.3l-4.5-5.6C639.9,322.7,640,321.9,640.7,321.5z" />
						<path class="st6" d="M628.4,328.6l8.6-5.1c0.5-0.3,1.2-0.2,1.6,0.3l4.5,5.6c0.5,0.6,0.3,1.5-0.3,1.8l-8.6,5.1        c-0.5,0.3-1.2,0.2-1.6-0.3l-4.5-5.6C627.6,329.9,627.7,329,628.4,328.6z" />
						<path class="st6" d="M616.1,335.8l8.6-5.1c0.5-0.3,1.2-0.2,1.6,0.3l4.5,5.6c0.5,0.6,0.3,1.5-0.3,1.8l-8.6,5.1        c-0.5,0.3-1.2,0.2-1.6-0.3l-4.5-5.6C615.3,337,615.5,336.1,616.1,335.8z" />
						<path class="st6" d="M603.8,342.9l8.6-5.1c0.5-0.3,1.2-0.2,1.6,0.3l4.5,5.6c0.5,0.6,0.3,1.5-0.3,1.8l-8.6,5.1        c-0.5,0.3-1.2,0.2-1.6-0.3l-4.5-5.6C603,344.1,603.2,343.3,603.8,342.9z" />
					</g>
					<line class="st7" x1="629.4" y1="379.5" x2="629.4" y2="381" />
				</g>
				<polygon class="st4" points="606.9,368.3 610.5,370.1 610.5,357.4 606.9,353     " />
				<polygon class="st4" points="611.6,369.6 610.5,370.1 610.5,357.4 611.7,358.8     " />
			</g>
		</g>
		<g>
			<g>
				<g>
					<polygon class="st4" points="702.9,282.8 777.7,239.3 807,276 807,277.5 732.1,321.1 702.9,284.4      " />
					<polygon class="st4" points="702.9,282.8 777.7,239.3 807,276 732.1,319.5      " />
					<g class="st5">
						<path class="st6" d="M774.9,256l8.6-5.1c0.5-0.3,1.2-0.2,1.6,0.3l4.5,5.6c0.5,0.6,0.3,1.5-0.3,1.8l-8.6,5.1        c-0.5,0.3-1.2,0.2-1.6-0.3l-4.5-5.6C774.1,257.2,774.3,256.4,774.9,256z" />
						<path class="st6" d="M762.6,263.1l8.6-5.1c0.5-0.3,1.2-0.2,1.6,0.3l4.5,5.6c0.5,0.6,0.3,1.5-0.3,1.8l-8.6,5.1        c-0.5,0.3-1.2,0.2-1.6-0.3l-4.5-5.6C761.8,264.3,762,263.5,762.6,263.1z" />
						<path class="st6" d="M750.4,270.2l8.6-5.1c0.5-0.3,1.2-0.2,1.6,0.3l4.5,5.6c0.5,0.6,0.3,1.5-0.3,1.8l-8.6,5.1        c-0.5,0.3-1.2,0.2-1.6-0.3l-4.5-5.6C749.6,271.5,749.7,270.6,750.4,270.2z" />
						<path class="st6" d="M738.1,277.4l8.6-5.1c0.5-0.3,1.2-0.2,1.6,0.3l4.5,5.6c0.5,0.6,0.3,1.5-0.3,1.8l-8.6,5.1        c-0.5,0.3-1.2,0.2-1.6-0.3l-4.5-5.6C737.3,278.6,737.4,277.8,738.1,277.4z" />
						<path class="st6" d="M725.8,284.5l8.6-5.1c0.5-0.3,1.2-0.2,1.6,0.3l4.5,5.6c0.5,0.6,0.3,1.5-0.3,1.8l-8.6,5.1        c-0.5,0.3-1.2,0.2-1.6-0.3l-4.5-5.6C725,285.7,725.2,284.9,725.8,284.5z" />
						<path class="st6" d="M713.5,291.6l8.6-5.1c0.5-0.3,1.2-0.2,1.6,0.3l4.5,5.6c0.5,0.6,0.3,1.5-0.3,1.8l-8.6,5.1        c-0.5,0.3-1.2,0.2-1.6-0.3l-4.5-5.6C712.7,292.9,712.9,292,713.5,291.6z" />
					</g>
					<g class="st5">
						<path class="st6" d="M781.9,264.6l8.6-5.1c0.5-0.3,1.2-0.2,1.6,0.3l4.5,5.6c0.5,0.6,0.3,1.5-0.3,1.8l-8.6,5.1        c-0.5,0.3-1.2,0.2-1.6-0.3l-4.5-5.6C781.1,265.9,781.2,265,781.9,264.6z" />
						<path class="st6" d="M769.6,271.8l8.6-5.1c0.5-0.3,1.2-0.2,1.6,0.3l4.5,5.6c0.5,0.6,0.3,1.5-0.3,1.8l-8.6,5.1        c-0.5,0.3-1.2,0.2-1.6-0.3l-4.5-5.6C768.8,273,769,272.2,769.6,271.8z" />
						<path class="st6" d="M757.3,278.9l8.6-5.1c0.5-0.3,1.2-0.2,1.6,0.3l4.5,5.6c0.5,0.6,0.3,1.5-0.3,1.8l-8.6,5.1        c-0.5,0.3-1.2,0.2-1.6-0.3l-4.5-5.6C756.5,280.2,756.7,279.3,757.3,278.9z" />
						<path class="st6" d="M745,286l8.6-5.1c0.5-0.3,1.2-0.2,1.6,0.3l4.5,5.6c0.5,0.6,0.3,1.5-0.3,1.8l-8.6,5.1        c-0.5,0.3-1.2,0.2-1.6-0.3l-4.5-5.6C744.2,287.3,744.4,286.4,745,286z" />
						<path class="st6" d="M732.8,293.2l8.6-5.1c0.5-0.3,1.2-0.2,1.6,0.3l4.5,5.6c0.5,0.6,0.3,1.5-0.3,1.8l-8.6,5.1        c-0.5,0.3-1.2,0.2-1.6-0.3l-4.5-5.6C732,294.4,732.1,293.6,732.8,293.2z" />
						<path class="st6" d="M720.5,300.3l8.6-5.1c0.5-0.3,1.2-0.2,1.6,0.3l4.5,5.6c0.5,0.6,0.3,1.5-0.3,1.8l-8.6,5.1        c-0.5,0.3-1.2,0.2-1.6-0.3l-4.5-5.6C719.7,301.6,719.9,300.7,720.5,300.3z" />
					</g>
					<g class="st5">
						<path class="st6" d="M788.8,273.3l8.6-5.1c0.5-0.3,1.2-0.2,1.6,0.3l4.5,5.6c0.5,0.6,0.3,1.5-0.3,1.8l-8.6,5.1        c-0.5,0.3-1.2,0.2-1.6-0.3l-4.5-5.6C788,274.6,788.2,273.7,788.8,273.3z" />
						<path class="st6" d="M776.6,280.5l8.6-5.1c0.5-0.3,1.2-0.2,1.6,0.3l4.5,5.6c0.5,0.6,0.3,1.5-0.3,1.8l-8.6,5.1        c-0.5,0.3-1.2,0.2-1.6-0.3l-4.5-5.6C775.7,281.7,775.9,280.8,776.6,280.5z" />
						<path class="st6" d="M764.3,287.6l8.6-5.1c0.5-0.3,1.2-0.2,1.6,0.3l4.5,5.6c0.5,0.6,0.3,1.5-0.3,1.8l-8.6,5.1        c-0.5,0.3-1.2,0.2-1.6-0.3l-4.5-5.6C763.5,288.8,763.6,288,764.3,287.6z" />
						<path class="st6" d="M752,294.7l8.6-5.1c0.5-0.3,1.2-0.2,1.6,0.3l4.5,5.6c0.5,0.6,0.3,1.5-0.3,1.8l-8.6,5.1        c-0.5,0.3-1.2,0.2-1.6-0.3l-4.5-5.6C751.2,296,751.4,295.1,752,294.7z" />
						<path class="st6" d="M739.7,301.9l8.6-5.1c0.5-0.3,1.2-0.2,1.6,0.3l4.5,5.6c0.5,0.6,0.3,1.5-0.3,1.8l-8.6,5.1        c-0.5,0.3-1.2,0.2-1.6-0.3l-4.5-5.6C738.9,303.1,739.1,302.2,739.7,301.9z" />
						<path class="st6" d="M727.5,309l8.6-5.1c0.5-0.3,1.2-0.2,1.6,0.3l4.5,5.6c0.5,0.6,0.3,1.5-0.3,1.8l-8.6,5.1        c-0.5,0.3-1.2,0.2-1.6-0.3l-4.5-5.6C726.6,310.2,726.8,309.4,727.5,309z" />
					</g>
					<g class="st5">
						<path class="st6" d="M768,247.3l8.6-5.1c0.5-0.3,1.2-0.2,1.6,0.3l4.5,5.6c0.5,0.6,0.3,1.5-0.3,1.8l-8.6,5.1        c-0.5,0.3-1.2,0.2-1.6-0.3l-4.5-5.6C767.2,248.5,767.3,247.7,768,247.3z" />
						<path class="st6" d="M755.7,254.4l8.6-5.1c0.5-0.3,1.2-0.2,1.6,0.3l4.5,5.6c0.5,0.6,0.3,1.5-0.3,1.8l-8.6,5.1        c-0.5,0.3-1.2,0.2-1.6-0.3l-4.5-5.6C754.9,255.7,755,254.8,755.7,254.4z" />
						<path class="st6" d="M743.4,261.6l8.6-5.1c0.5-0.3,1.2-0.2,1.6,0.3l4.5,5.6c0.5,0.6,0.3,1.5-0.3,1.8l-8.6,5.1        c-0.5,0.3-1.2,0.2-1.6-0.3l-4.5-5.6C742.6,262.8,742.8,261.9,743.4,261.6z" />
						<path class="st6" d="M731.1,268.7l8.6-5.1c0.5-0.3,1.2-0.2,1.6,0.3l4.5,5.6c0.5,0.6,0.3,1.5-0.3,1.8l-8.6,5.1        c-0.5,0.3-1.2,0.2-1.6-0.3l-4.5-5.6C730.3,269.9,730.5,269.1,731.1,268.7z" />
						<path class="st6" d="M718.9,275.8l8.6-5.1c0.5-0.3,1.2-0.2,1.6,0.3l4.5,5.6c0.5,0.6,0.3,1.5-0.3,1.8l-8.6,5.1        c-0.5,0.3-1.2,0.2-1.6-0.3l-4.5-5.6C718.1,277.1,718.2,276.2,718.9,275.8z" />
						<path class="st6" d="M706.6,283l8.6-5.1c0.5-0.3,1.2-0.2,1.6,0.3l4.5,5.6c0.5,0.6,0.3,1.5-0.3,1.8l-8.6,5.1        c-0.5,0.3-1.2,0.2-1.6-0.3l-4.5-5.6C705.8,284.2,705.9,283.3,706.6,283z" />
					</g>
					<line class="st7" x1="732.1" y1="319.5" x2="732.1" y2="321.1" />
				</g>
				<polygon class="st4" points="709.7,308.3 713.3,310.2 713.3,297.4 709.7,293.1     " />
				<polygon class="st4" points="714.3,309.6 713.3,310.2 713.3,297.4 714.4,298.9     " />
			</g>
		</g>
		<g>
			<g>
				<g>
					<polygon class="st4" points="495.4,212.7 570.3,169.2 599.5,205.9 599.5,207.5 524.7,251 495.4,214.3      " />
					<polygon class="st4" points="495.4,212.7 570.3,169.2 599.5,205.9 524.7,249.4      " />
					<g class="st5">
						<path class="st6" d="M567.5,185.9l8.6-5.1c0.5-0.3,1.2-0.2,1.6,0.3l4.5,5.6c0.5,0.6,0.3,1.5-0.3,1.8l-8.6,5.1        c-0.5,0.3-1.2,0.2-1.6-0.3l-4.5-5.6C566.7,187.1,566.8,186.3,567.5,185.9z" />
						<path class="st6" d="M555.2,193l8.6-5.1c0.5-0.3,1.2-0.2,1.6,0.3l4.5,5.6c0.5,0.6,0.3,1.5-0.3,1.8l-8.6,5.1        c-0.5,0.3-1.2,0.2-1.6-0.3l-4.5-5.6C554.4,194.3,554.6,193.4,555.2,193z" />
						<path class="st6" d="M542.9,200.2l8.6-5.1c0.5-0.3,1.2-0.2,1.6,0.3l4.5,5.6c0.5,0.6,0.3,1.5-0.3,1.8l-8.6,5.1        c-0.5,0.3-1.2,0.2-1.6-0.3l-4.5-5.6C542.1,201.4,542.3,200.5,542.9,200.2z" />
						<path class="st6" d="M530.6,207.3l8.6-5.1c0.5-0.3,1.2-0.2,1.6,0.3l4.5,5.6c0.5,0.6,0.3,1.5-0.3,1.8l-8.6,5.1        c-0.5,0.3-1.2,0.2-1.6-0.3l-4.5-5.6C529.8,208.5,530,207.7,530.6,207.3z" />
						<path class="st6" d="M518.4,214.4l8.6-5.1c0.5-0.3,1.2-0.2,1.6,0.3l4.5,5.6c0.5,0.6,0.3,1.5-0.3,1.8l-8.6,5.1        c-0.5,0.3-1.2,0.2-1.6-0.3l-4.5-5.6C517.6,215.7,517.7,214.8,518.4,214.4z" />
						<path class="st6" d="M506.1,221.6l8.6-5.1c0.5-0.3,1.2-0.2,1.6,0.3l4.5,5.6c0.5,0.6,0.3,1.5-0.3,1.8l-8.6,5.1        c-0.5,0.3-1.2,0.2-1.6-0.3l-4.5-5.6C505.3,222.8,505.5,221.9,506.1,221.6z" />
					</g>
					<g class="st5">
						<path class="st6" d="M574.4,194.6l8.6-5.1c0.5-0.3,1.2-0.2,1.6,0.3l4.5,5.6c0.5,0.6,0.3,1.5-0.3,1.8l-8.6,5.1        c-0.5,0.3-1.2,0.2-1.6-0.3l-4.5-5.6C573.6,195.8,573.8,195,574.4,194.6z" />
						<path class="st6" d="M562.2,201.7l8.6-5.1c0.5-0.3,1.2-0.2,1.6,0.3l4.5,5.6c0.5,0.6,0.3,1.5-0.3,1.8l-8.6,5.1        c-0.5,0.3-1.2,0.2-1.6-0.3l-4.5-5.6C561.3,202.9,561.5,202.1,562.2,201.7z" />
						<path class="st6" d="M549.9,208.8l8.6-5.1c0.5-0.3,1.2-0.2,1.6,0.3l4.5,5.6c0.5,0.6,0.3,1.5-0.3,1.8l-8.6,5.1        c-0.5,0.3-1.2,0.2-1.6-0.3l-4.5-5.6C549.1,210.1,549.2,209.2,549.9,208.8z" />
						<path class="st6" d="M537.6,216l8.6-5.1c0.5-0.3,1.2-0.2,1.6,0.3l4.5,5.6c0.5,0.6,0.3,1.5-0.3,1.8l-8.6,5.1        c-0.5,0.3-1.2,0.2-1.6-0.3l-4.5-5.6C536.8,217.2,537,216.4,537.6,216z" />
						<path class="st6" d="M525.3,223.1l8.6-5.1c0.5-0.3,1.2-0.2,1.6,0.3l4.5,5.6c0.5,0.6,0.3,1.5-0.3,1.8l-8.6,5.1        c-0.5,0.3-1.2,0.2-1.6-0.3l-4.5-5.6C524.5,224.3,524.7,223.5,525.3,223.1z" />
						<path class="st6" d="M513.1,230.2l8.6-5.1c0.5-0.3,1.2-0.2,1.6,0.3l4.5,5.6c0.5,0.6,0.3,1.5-0.3,1.8l-8.6,5.1        c-0.5,0.3-1.2,0.2-1.6-0.3l-4.5-5.6C512.2,231.5,512.4,230.6,513.1,230.2z" />
					</g>
					<g class="st5">
						<path class="st6" d="M581.4,203.2l8.6-5.1c0.5-0.3,1.2-0.2,1.6,0.3l4.5,5.6c0.5,0.6,0.3,1.5-0.3,1.8l-8.6,5.1        c-0.5,0.3-1.2,0.2-1.6-0.3l-4.5-5.6C580.6,204.5,580.7,203.6,581.4,203.2z" />
						<path class="st6" d="M569.1,210.4l8.6-5.1c0.5-0.3,1.2-0.2,1.6,0.3l4.5,5.6c0.5,0.6,0.3,1.5-0.3,1.8l-8.6,5.1        c-0.5,0.3-1.2,0.2-1.6-0.3l-4.5-5.6C568.3,211.6,568.5,210.8,569.1,210.4z" />
						<path class="st6" d="M556.8,217.5l8.6-5.1c0.5-0.3,1.2-0.2,1.6,0.3l4.5,5.6c0.5,0.6,0.3,1.5-0.3,1.8l-8.6,5.1        c-0.5,0.3-1.2,0.2-1.6-0.3l-4.5-5.6C556,218.8,556.2,217.9,556.8,217.5z" />
						<path class="st6" d="M544.6,224.6l8.6-5.1c0.5-0.3,1.2-0.2,1.6,0.3l4.5,5.6c0.5,0.6,0.3,1.5-0.3,1.8l-8.6,5.1        c-0.5,0.3-1.2,0.2-1.6-0.3l-4.5-5.6C543.8,225.9,543.9,225,544.6,224.6z" />
						<path class="st6" d="M532.3,231.8l8.6-5.1c0.5-0.3,1.2-0.2,1.6,0.3l4.5,5.6c0.5,0.6,0.3,1.5-0.3,1.8l-8.6,5.1        c-0.5,0.3-1.2,0.2-1.6-0.3l-4.5-5.6C531.5,233,531.6,232.2,532.3,231.8z" />
						<path class="st6" d="M520,238.9l8.6-5.1c0.5-0.3,1.2-0.2,1.6,0.3l4.5,5.6c0.5,0.6,0.3,1.5-0.3,1.8l-8.6,5.1        c-0.5,0.3-1.2,0.2-1.6-0.3l-4.5-5.6C519.2,240.2,519.4,239.3,520,238.9z" />
					</g>
					<g class="st5">
						<path class="st6" d="M560.5,177.2l8.6-5.1c0.5-0.3,1.2-0.2,1.6,0.3l4.5,5.6c0.5,0.6,0.3,1.5-0.3,1.8l-8.6,5.1        c-0.5,0.3-1.2,0.2-1.6-0.3l-4.5-5.6C559.7,178.5,559.9,177.6,560.5,177.2z" />
						<path class="st6" d="M548.2,184.3l8.6-5.1c0.5-0.3,1.2-0.2,1.6,0.3l4.5,5.6c0.5,0.6,0.3,1.5-0.3,1.8L554,192        c-0.5,0.3-1.2,0.2-1.6-0.3l-4.5-5.6C547.4,185.6,547.6,184.7,548.2,184.3z" />
						<path class="st6" d="M536,191.5l8.6-5.1c0.5-0.3,1.2-0.2,1.6,0.3l4.5,5.6c0.5,0.6,0.3,1.5-0.3,1.8l-8.6,5.1        c-0.5,0.3-1.2,0.2-1.6-0.3l-4.5-5.6C535.2,192.7,535.3,191.9,536,191.5z" />
						<path class="st6" d="M523.7,198.6l8.6-5.1c0.5-0.3,1.2-0.2,1.6,0.3l4.5,5.6c0.5,0.6,0.3,1.5-0.3,1.8l-8.6,5.1        c-0.5,0.3-1.2,0.2-1.6-0.3l-4.5-5.6C522.9,199.9,523.1,199,523.7,198.6z" />
						<path class="st6" d="M511.4,205.7l8.6-5.1c0.5-0.3,1.2-0.2,1.6,0.3l4.5,5.6c0.5,0.6,0.3,1.5-0.3,1.8l-8.6,5.1        c-0.5,0.3-1.2,0.2-1.6-0.3l-4.5-5.6C510.6,207,510.8,206.1,511.4,205.7z" />
						<path class="st6" d="M499.1,212.9l8.6-5.1c0.5-0.3,1.2-0.2,1.6,0.3l4.5,5.6c0.5,0.6,0.3,1.5-0.3,1.8l-8.6,5.1        c-0.5,0.3-1.2,0.2-1.6-0.3l-4.5-5.6C498.3,214.1,498.5,213.3,499.1,212.9z" />
					</g>
					<line class="st7" x1="524.7" y1="249.4" x2="524.7" y2="251" />
				</g>
				<polygon class="st4" points="502.2,238.2 505.8,240.1 505.8,227.4 502.2,223     " />
				<polygon class="st4" points="506.9,239.5 505.8,240.1 505.8,227.4 507,228.8     " />
			</g>
		</g>
		<g>
			<g>
				<g>
					<polygon class="st4" points="590.4,158.6 665.2,115.1 694.5,151.8 694.5,153.4 619.6,196.9 590.4,160.2      " />
					<polygon class="st4" points="590.4,158.6 665.2,115.1 694.5,151.8 619.6,195.4      " />
					<g class="st5">
						<path class="st6" d="M662.4,131.8l8.6-5.1c0.5-0.3,1.2-0.2,1.6,0.3l4.5,5.6c0.5,0.6,0.3,1.5-0.3,1.8l-8.6,5.1        c-0.5,0.3-1.2,0.2-1.6-0.3l-4.5-5.6C661.6,133.1,661.8,132.2,662.4,131.8z" />
						<path class="st6" d="M650.1,138.9l8.6-5.1c0.5-0.3,1.2-0.2,1.6,0.3l4.5,5.6c0.5,0.6,0.3,1.5-0.3,1.8l-8.6,5.1        c-0.5,0.3-1.2,0.2-1.6-0.3l-4.5-5.6C649.3,140.2,649.5,139.3,650.1,138.9z" />
						<path class="st6" d="M637.9,146.1l8.6-5.1c0.5-0.3,1.2-0.2,1.6,0.3l4.5,5.6c0.5,0.6,0.3,1.5-0.3,1.8l-8.6,5.1        c-0.5,0.3-1.2,0.2-1.6-0.3l-4.5-5.6C637.1,147.3,637.2,146.5,637.9,146.1z" />
						<path class="st6" d="M625.6,153.2l8.6-5.1c0.5-0.3,1.2-0.2,1.6,0.3l4.5,5.6c0.5,0.6,0.3,1.5-0.3,1.8l-8.6,5.1        c-0.5,0.3-1.2,0.2-1.6-0.3l-4.5-5.6C624.8,154.5,625,153.6,625.6,153.2z" />
						<path class="st6" d="M613.3,160.3l8.6-5.1c0.5-0.3,1.2-0.2,1.6,0.3l4.5,5.6c0.5,0.6,0.3,1.5-0.3,1.8l-8.6,5.1        c-0.5,0.3-1.2,0.2-1.6-0.3l-4.5-5.6C612.5,161.6,612.7,160.7,613.3,160.3z" />
						<path class="st6" d="M601,167.5l8.6-5.1c0.5-0.3,1.2-0.2,1.6,0.3l4.5,5.6c0.5,0.6,0.3,1.5-0.3,1.8l-8.6,5.1        c-0.5,0.3-1.2,0.2-1.6-0.3l-4.5-5.6C600.2,168.7,600.4,167.9,601,167.5z" />
					</g>
					<g class="st5">
						<path class="st6" d="M669.4,140.5l8.6-5.1c0.5-0.3,1.2-0.2,1.6,0.3l4.5,5.6c0.5,0.6,0.3,1.5-0.3,1.8l-8.6,5.1        c-0.5,0.3-1.2,0.2-1.6-0.3l-4.5-5.6C668.6,141.7,668.7,140.9,669.4,140.5z" />
						<path class="st6" d="M657.1,147.6l8.6-5.1c0.5-0.3,1.2-0.2,1.6,0.3l4.5,5.6c0.5,0.6,0.3,1.5-0.3,1.8l-8.6,5.1        c-0.5,0.3-1.2,0.2-1.6-0.3l-4.5-5.6C656.3,148.9,656.5,148,657.1,147.6z" />
						<path class="st6" d="M644.8,154.7l8.6-5.1c0.5-0.3,1.2-0.2,1.6,0.3l4.5,5.6c0.5,0.6,0.3,1.5-0.3,1.8l-8.6,5.1        c-0.5,0.3-1.2,0.2-1.6-0.3l-4.5-5.6C644,156,644.2,155.1,644.8,154.7z" />
						<path class="st6" d="M632.6,161.9l8.6-5.1c0.5-0.3,1.2-0.2,1.6,0.3l4.5,5.6c0.5,0.6,0.3,1.5-0.3,1.8l-8.6,5.1        c-0.5,0.3-1.2,0.2-1.6-0.3l-4.5-5.6C631.7,163.1,631.9,162.3,632.6,161.9z" />
						<path class="st6" d="M620.3,169l8.6-5.1c0.5-0.3,1.2-0.2,1.6,0.3l4.5,5.6c0.5,0.6,0.3,1.5-0.3,1.8l-8.6,5.1        c-0.5,0.3-1.2,0.2-1.6-0.3l-4.5-5.6C619.5,170.3,619.6,169.4,620.3,169z" />
						<path class="st6" d="M608,176.1l8.6-5.1c0.5-0.3,1.2-0.2,1.6,0.3l4.5,5.6c0.5,0.6,0.3,1.5-0.3,1.8l-8.6,5.1        c-0.5,0.3-1.2,0.2-1.6-0.3l-4.5-5.6C607.2,177.4,607.4,176.5,608,176.1z" />
					</g>
					<g class="st5">
						<path class="st6" d="M676.3,149.2l8.6-5.1c0.5-0.3,1.2-0.2,1.6,0.3l4.5,5.6c0.5,0.6,0.3,1.5-0.3,1.8l-8.6,5.1        c-0.5,0.3-1.2,0.2-1.6-0.3L676,151C675.5,150.4,675.7,149.5,676.3,149.2z" />
						<path class="st6" d="M664.1,156.3l8.6-5.1c0.5-0.3,1.2-0.2,1.6,0.3l4.5,5.6c0.5,0.6,0.3,1.5-0.3,1.8l-8.6,5.1        c-0.5,0.3-1.2,0.2-1.6-0.3l-4.5-5.6C663.3,157.5,663.4,156.7,664.1,156.3z" />
						<path class="st6" d="M651.8,163.4l8.6-5.1c0.5-0.3,1.2-0.2,1.6,0.3l4.5,5.6c0.5,0.6,0.3,1.5-0.3,1.8l-8.6,5.1        c-0.5,0.3-1.2,0.2-1.6-0.3l-4.5-5.6C651,164.7,651.1,163.8,651.8,163.4z" />
						<path class="st6" d="M639.5,170.6l8.6-5.1c0.5-0.3,1.2-0.2,1.6,0.3l4.5,5.6c0.5,0.6,0.3,1.5-0.3,1.8l-8.6,5.1        c-0.5,0.3-1.2,0.2-1.6-0.3l-4.5-5.6C638.7,171.8,638.9,170.9,639.5,170.6z" />
						<path class="st6" d="M627.2,177.7l8.6-5.1c0.5-0.3,1.2-0.2,1.6,0.3l4.5,5.6c0.5,0.6,0.3,1.5-0.3,1.8l-8.6,5.1        c-0.5,0.3-1.2,0.2-1.6-0.3l-4.5-5.6C626.4,178.9,626.6,178.1,627.2,177.7z" />
						<path class="st6" d="M615,184.8l8.6-5.1c0.5-0.3,1.2-0.2,1.6,0.3l4.5,5.6c0.5,0.6,0.3,1.5-0.3,1.8l-8.6,5.1        c-0.5,0.3-1.2,0.2-1.6-0.3l-4.5-5.6C614.2,186.1,614.3,185.2,615,184.8z" />
					</g>
					<g class="st5">
						<path class="st6" d="M655.5,123.1l8.6-5.1c0.5-0.3,1.2-0.2,1.6,0.3l4.5,5.6c0.5,0.6,0.3,1.5-0.3,1.8l-8.6,5.1        c-0.5,0.3-1.2,0.2-1.6-0.3l-4.5-5.6C654.7,124.4,654.8,123.5,655.5,123.1z" />
						<path class="st6" d="M643.2,130.3l8.6-5.1c0.5-0.3,1.2-0.2,1.6,0.3l4.5,5.6c0.5,0.6,0.3,1.5-0.3,1.8L649,138        c-0.5,0.3-1.2,0.2-1.6-0.3l-4.5-5.6C642.4,131.5,642.5,130.6,643.2,130.3z" />
						<path class="st6" d="M630.9,137.4l8.6-5.1c0.5-0.3,1.2-0.2,1.6,0.3l4.5,5.6c0.5,0.6,0.3,1.5-0.3,1.8l-8.6,5.1        c-0.5,0.3-1.2,0.2-1.6-0.3l-4.5-5.6C630.1,138.6,630.3,137.8,630.9,137.4z" />
						<path class="st6" d="M618.6,144.5l8.6-5.1c0.5-0.3,1.2-0.2,1.6,0.3l4.5,5.6c0.5,0.6,0.3,1.5-0.3,1.8l-8.6,5.1        c-0.5,0.3-1.2,0.2-1.6-0.3l-4.5-5.6C617.8,145.8,618,144.9,618.6,144.5z" />
						<path class="st6" d="M606.4,151.7l8.6-5.1c0.5-0.3,1.2-0.2,1.6,0.3l4.5,5.6c0.5,0.6,0.3,1.5-0.3,1.8l-8.6,5.1        c-0.5,0.3-1.2,0.2-1.6-0.3l-4.5-5.6C605.6,152.9,605.7,152,606.4,151.7z" />
						<path class="st6" d="M594.1,158.8l8.6-5.1c0.5-0.3,1.2-0.2,1.6,0.3l4.5,5.6c0.5,0.6,0.3,1.5-0.3,1.8l-8.6,5.1        c-0.5,0.3-1.2,0.2-1.6-0.3l-4.5-5.6C593.3,160,593.4,159.2,594.1,158.8z" />
					</g>
					<line class="st7" x1="619.6" y1="195.4" x2="619.6" y2="196.9" />
				</g>
				<polygon class="st4" points="597.2,184.2 600.8,186 600.8,173.3 597.2,168.9     " />
				<polygon class="st4" points="601.8,185.4 600.8,186 600.8,173.3 601.9,174.7     " />
			</g>
		</g>
		<g>
			<g>
				<g>
					<polygon class="st4" points="686.3,102.7 761.2,59.1 790.5,95.8 790.5,97.4 715.6,141 686.3,104.2      " />
					<polygon class="st4" points="686.3,102.7 761.2,59.1 790.5,95.8 715.6,139.4      " />
					<g class="st5">
						<path class="st6" d="M758.4,75.8l8.6-5.1c0.5-0.3,1.2-0.2,1.6,0.3l4.5,5.6c0.5,0.6,0.3,1.5-0.3,1.8l-8.6,5.1        c-0.5,0.3-1.2,0.2-1.6-0.3l-4.5-5.6C757.6,77.1,757.7,76.2,758.4,75.8z" />
						<path class="st6" d="M746.1,83l8.6-5.1c0.5-0.3,1.2-0.2,1.6,0.3l4.5,5.6c0.5,0.6,0.3,1.5-0.3,1.8l-8.6,5.1        c-0.5,0.3-1.2,0.2-1.6-0.3l-4.5-5.6C745.3,84.2,745.5,83.3,746.1,83z" />
						<path class="st6" d="M733.8,90.1l8.6-5.1c0.5-0.3,1.2-0.2,1.6,0.3l4.5,5.6c0.5,0.6,0.3,1.5-0.3,1.8l-8.6,5.1        c-0.5,0.3-1.2,0.2-1.6-0.3l-4.5-5.6C733,91.3,733.2,90.5,733.8,90.1z" />
						<path class="st6" d="M721.6,97.2l8.6-5.1c0.5-0.3,1.2-0.2,1.6,0.3l4.5,5.6c0.5,0.6,0.3,1.5-0.3,1.8l-8.6,5.1        c-0.5,0.3-1.2,0.2-1.6-0.3l-4.5-5.6C720.8,98.5,720.9,97.6,721.6,97.2z" />
						<path class="st6" d="M709.3,104.4l8.6-5.1c0.5-0.3,1.2-0.2,1.6,0.3l4.5,5.6c0.5,0.6,0.3,1.5-0.3,1.8l-8.6,5.1        c-0.5,0.3-1.2,0.2-1.6-0.3l-4.5-5.6C708.5,105.6,708.6,104.7,709.3,104.4z" />
						<path class="st6" d="M697,111.5l8.6-5.1c0.5-0.3,1.2-0.2,1.6,0.3l4.5,5.6c0.5,0.6,0.3,1.5-0.3,1.8l-8.6,5.1        c-0.5,0.3-1.2,0.2-1.6-0.3l-4.5-5.6C696.2,112.7,696.4,111.9,697,111.5z" />
					</g>
					<g class="st5">
						<path class="st6" d="M765.3,84.5l8.6-5.1c0.5-0.3,1.2-0.2,1.6,0.3l4.5,5.6c0.5,0.6,0.3,1.5-0.3,1.8l-8.6,5.1        c-0.5,0.3-1.2,0.2-1.6-0.3l-4.5-5.6C764.5,85.8,764.7,84.9,765.3,84.5z" />
						<path class="st6" d="M753.1,91.6l8.6-5.1c0.5-0.3,1.2-0.2,1.6,0.3l4.5,5.6c0.5,0.6,0.3,1.5-0.3,1.8l-8.6,5.1        c-0.5,0.3-1.2,0.2-1.6-0.3l-4.5-5.6C752.3,92.9,752.4,92,753.1,91.6z" />
						<path class="st6" d="M740.8,98.8l8.6-5.1c0.5-0.3,1.2-0.2,1.6,0.3l4.5,5.6c0.5,0.6,0.3,1.5-0.3,1.8l-8.6,5.1        c-0.5,0.3-1.2,0.2-1.6-0.3l-4.5-5.6C740,100,740.2,99.2,740.8,98.8z" />
						<path class="st6" d="M728.5,105.9l8.6-5.1c0.5-0.3,1.2-0.2,1.6,0.3l4.5,5.6c0.5,0.6,0.3,1.5-0.3,1.8l-8.6,5.1        c-0.5,0.3-1.2,0.2-1.6-0.3l-4.5-5.6C727.7,107.1,727.9,106.3,728.5,105.9z" />
						<path class="st6" d="M716.2,113l8.6-5.1c0.5-0.3,1.2-0.2,1.6,0.3l4.5,5.6c0.5,0.6,0.3,1.5-0.3,1.8l-8.6,5.1        c-0.5,0.3-1.2,0.2-1.6-0.3l-4.5-5.6C715.4,114.3,715.6,113.4,716.2,113z" />
						<path class="st6" d="M704,120.2l8.6-5.1c0.5-0.3,1.2-0.2,1.6,0.3l4.5,5.6c0.5,0.6,0.3,1.5-0.3,1.8l-8.6,5.1        c-0.5,0.3-1.2,0.2-1.6-0.3l-4.5-5.6C703.2,121.4,703.3,120.5,704,120.2z" />
					</g>
					<g class="st5">
						<path class="st6" d="M772.3,93.2l8.6-5.1c0.5-0.3,1.2-0.2,1.6,0.3L787,94c0.5,0.6,0.3,1.5-0.3,1.8l-8.6,5.1        c-0.5,0.3-1.2,0.2-1.6-0.3L772,95C771.5,94.4,771.7,93.6,772.3,93.2z" />
						<path class="st6" d="M760,100.3l8.6-5.1c0.5-0.3,1.2-0.2,1.6,0.3l4.5,5.6c0.5,0.6,0.3,1.5-0.3,1.8l-8.6,5.1        c-0.5,0.3-1.2,0.2-1.6-0.3l-4.5-5.6C759.2,101.6,759.4,100.7,760,100.3z" />
						<path class="st6" d="M747.8,107.4l8.6-5.1c0.5-0.3,1.2-0.2,1.6,0.3l4.5,5.6c0.5,0.6,0.3,1.5-0.3,1.8l-8.6,5.1        c-0.5,0.3-1.2,0.2-1.6-0.3l-4.5-5.6C746.9,108.7,747.1,107.8,747.8,107.4z" />
						<path class="st6" d="M735.5,114.6l8.6-5.1c0.5-0.3,1.2-0.2,1.6,0.3l4.5,5.6c0.5,0.6,0.3,1.5-0.3,1.8l-8.6,5.1        c-0.5,0.3-1.2,0.2-1.6-0.3l-4.5-5.6C734.7,115.8,734.8,115,735.5,114.6z" />
						<path class="st6" d="M723.2,121.7l8.6-5.1c0.5-0.3,1.2-0.2,1.6,0.3l4.5,5.6c0.5,0.6,0.3,1.5-0.3,1.8l-8.6,5.1        c-0.5,0.3-1.2,0.2-1.6-0.3l-4.5-5.6C722.4,123,722.6,122.1,723.2,121.7z" />
						<path class="st6" d="M710.9,128.8l8.6-5.1c0.5-0.3,1.2-0.2,1.6,0.3l4.5,5.6c0.5,0.6,0.3,1.5-0.3,1.8l-8.6,5.1        c-0.5,0.3-1.2,0.2-1.6-0.3l-4.5-5.6C710.1,130.1,710.3,129.2,710.9,128.8z" />
					</g>
					<g class="st5">
						<path class="st6" d="M751.4,67.2l8.6-5.1c0.5-0.3,1.2-0.2,1.6,0.3l4.5,5.6c0.5,0.6,0.3,1.5-0.3,1.8l-8.6,5.1        c-0.5,0.3-1.2,0.2-1.6-0.3l-4.5-5.6C750.6,68.4,750.8,67.5,751.4,67.2z" />
						<path class="st6" d="M739.2,74.3l8.6-5.1c0.5-0.3,1.2-0.2,1.6,0.3l4.5,5.6c0.5,0.6,0.3,1.5-0.3,1.8L745,82        c-0.5,0.3-1.2,0.2-1.6-0.3l-4.5-5.6C738.4,75.5,738.5,74.7,739.2,74.3z" />
						<path class="st6" d="M726.9,81.4l8.6-5.1c0.5-0.3,1.2-0.2,1.6,0.3l4.5,5.6c0.5,0.6,0.3,1.5-0.3,1.8l-8.6,5.1        c-0.5,0.3-1.2,0.2-1.6-0.3l-4.5-5.6C726.1,82.7,726.2,81.8,726.9,81.4z" />
						<path class="st6" d="M714.6,88.5l8.6-5.1c0.5-0.3,1.2-0.2,1.6,0.3l4.5,5.6c0.5,0.6,0.3,1.5-0.3,1.8l-8.6,5.1        c-0.5,0.3-1.2,0.2-1.6-0.3l-4.5-5.6C713.8,89.8,714,88.9,714.6,88.5z" />
						<path class="st6" d="M702.3,95.7l8.6-5.1c0.5-0.3,1.2-0.2,1.6,0.3l4.5,5.6c0.5,0.6,0.3,1.5-0.3,1.8l-8.6,5.1        c-0.5,0.3-1.2,0.2-1.6-0.3l-4.5-5.6C701.5,96.9,701.7,96.1,702.3,95.7z" />
						<path class="st6" d="M690.1,102.8l8.6-5.1c0.5-0.3,1.2-0.2,1.6,0.3l4.5,5.6c0.5,0.6,0.3,1.5-0.3,1.8l-8.6,5.1        c-0.5,0.3-1.2,0.2-1.6-0.3l-4.5-5.6C689.3,104.1,689.4,103.2,690.1,102.8z" />
					</g>
					<line class="st7" x1="715.6" y1="139.4" x2="715.6" y2="141" />
				</g>
				<polygon class="st4" points="693.2,128.2 696.7,130.1 696.7,117.3 693.2,112.9     " />
				<polygon class="st4" points="697.8,129.5 696.7,130.1 696.7,117.3 697.9,118.7     " />
			</g>
		</g>
		<g>
			<g>
				<g>
					<polygon class="st4" points="704.8,364.9 779.6,321.3 808.9,358 808.9,359.6 734,403.2 704.8,366.5      " />
					<polygon class="st4" points="704.8,364.9 779.6,321.3 808.9,358 734,401.6      " />
					<g class="st5">
						<path class="st6" d="M776.8,338l8.6-5.1c0.5-0.3,1.2-0.2,1.6,0.3l4.5,5.6c0.5,0.6,0.3,1.5-0.3,1.8l-8.6,5.1        c-0.5,0.3-1.2,0.2-1.6-0.3l-4.5-5.6C776,339.3,776.2,338.4,776.8,338z" />
						<path class="st6" d="M764.5,345.2l8.6-5.1c0.5-0.3,1.2-0.2,1.6,0.3l4.5,5.6c0.5,0.6,0.3,1.5-0.3,1.8l-8.6,5.1        c-0.5,0.3-1.2,0.2-1.6-0.3l-4.5-5.6C763.7,346.4,763.9,345.6,764.5,345.2z" />
						<path class="st6" d="M752.3,352.3l8.6-5.1c0.5-0.3,1.2-0.2,1.6,0.3l4.5,5.6c0.5,0.6,0.3,1.5-0.3,1.8L758,360        c-0.5,0.3-1.2,0.2-1.6-0.3l-4.5-5.6C751.4,353.6,751.6,352.7,752.3,352.3z" />
						<path class="st6" d="M740,359.4l8.6-5.1c0.5-0.3,1.2-0.2,1.6,0.3l4.5,5.6c0.5,0.6,0.3,1.5-0.3,1.8l-8.6,5.1        c-0.5,0.3-1.2,0.2-1.6-0.3l-4.5-5.6C739.2,360.7,739.3,359.8,740,359.4z" />
						<path class="st6" d="M727.7,366.6l8.6-5.1c0.5-0.3,1.2-0.2,1.6,0.3l4.5,5.6c0.5,0.6,0.3,1.5-0.3,1.8l-8.6,5.1        c-0.5,0.3-1.2,0.2-1.6-0.3l-4.5-5.6C726.9,367.8,727.1,367,727.7,366.6z" />
						<path class="st6" d="M715.4,373.7l8.6-5.1c0.5-0.3,1.2-0.2,1.6,0.3l4.5,5.6c0.5,0.6,0.3,1.5-0.3,1.8l-8.6,5.1        c-0.5,0.3-1.2,0.2-1.6-0.3l-4.5-5.6C714.6,375,714.8,374.1,715.4,373.7z" />
					</g>
					<g class="st5">
						<path class="st6" d="M783.8,346.7l8.6-5.1c0.5-0.3,1.2-0.2,1.6,0.3l4.5,5.6c0.5,0.6,0.3,1.5-0.3,1.8l-8.6,5.1        c-0.5,0.3-1.2,0.2-1.6-0.3l-4.5-5.6C783,348,783.1,347.1,783.8,346.7z" />
						<path class="st6" d="M771.5,353.9l8.6-5.1c0.5-0.3,1.2-0.2,1.6,0.3l4.5,5.6c0.5,0.6,0.3,1.5-0.3,1.8l-8.6,5.1        c-0.5,0.3-1.2,0.2-1.6-0.3l-4.5-5.6C770.7,355.1,770.8,354.2,771.5,353.9z" />
						<path class="st6" d="M759.2,361l8.6-5.1c0.5-0.3,1.2-0.2,1.6,0.3l4.5,5.6c0.5,0.6,0.3,1.5-0.3,1.8l-8.6,5.1        c-0.5,0.3-1.2,0.2-1.6-0.3l-4.5-5.6C758.4,362.2,758.6,361.4,759.2,361z" />
						<path class="st6" d="M746.9,368.1l8.6-5.1c0.5-0.3,1.2-0.2,1.6,0.3l4.5,5.6c0.5,0.6,0.3,1.5-0.3,1.8l-8.6,5.1        c-0.5,0.3-1.2,0.2-1.6-0.3l-4.5-5.6C746.1,369.4,746.3,368.5,746.9,368.1z" />
						<path class="st6" d="M734.7,375.3l8.6-5.1c0.5-0.3,1.2-0.2,1.6,0.3l4.5,5.6c0.5,0.6,0.3,1.5-0.3,1.8l-8.6,5.1        c-0.5,0.3-1.2,0.2-1.6-0.3l-4.5-5.6C733.9,376.5,734,375.6,734.7,375.3z" />
						<path class="st6" d="M722.4,382.4l8.6-5.1c0.5-0.3,1.2-0.2,1.6,0.3l4.5,5.6c0.5,0.6,0.3,1.5-0.3,1.8l-8.6,5.1        c-0.5,0.3-1.2,0.2-1.6-0.3l-4.5-5.6C721.6,383.6,721.7,382.8,722.4,382.4z" />
					</g>
					<g class="st5">
						<path class="st6" d="M790.7,355.4l8.6-5.1c0.5-0.3,1.2-0.2,1.6,0.3l4.5,5.6c0.5,0.6,0.3,1.5-0.3,1.8l-8.6,5.1        c-0.5,0.3-1.2,0.2-1.6-0.3l-4.5-5.6C789.9,356.6,790.1,355.8,790.7,355.4z" />
						<path class="st6" d="M778.4,362.5l8.6-5.1c0.5-0.3,1.2-0.2,1.6,0.3l4.5,5.6c0.5,0.6,0.3,1.5-0.3,1.8l-8.6,5.1        c-0.5,0.3-1.2,0.2-1.6-0.3l-4.5-5.6C777.6,363.8,777.8,362.9,778.4,362.5z" />
						<path class="st6" d="M766.2,369.7l8.6-5.1c0.5-0.3,1.2-0.2,1.6,0.3l4.5,5.6c0.5,0.6,0.3,1.5-0.3,1.8l-8.6,5.1        c-0.5,0.3-1.2,0.2-1.6-0.3l-4.5-5.6C765.4,370.9,765.5,370,766.2,369.7z" />
						<path class="st6" d="M753.9,376.8l8.6-5.1c0.5-0.3,1.2-0.2,1.6,0.3l4.5,5.6c0.5,0.6,0.3,1.5-0.3,1.8l-8.6,5.1        c-0.5,0.3-1.2,0.2-1.6-0.3l-4.5-5.6C753.1,378,753.2,377.2,753.9,376.8z" />
						<path class="st6" d="M741.6,383.9l8.6-5.1c0.5-0.3,1.2-0.2,1.6,0.3l4.5,5.6c0.5,0.6,0.3,1.5-0.3,1.8l-8.6,5.1        c-0.5,0.3-1.2,0.2-1.6-0.3l-4.5-5.6C740.8,385.2,741,384.3,741.6,383.9z" />
						<path class="st6" d="M729.3,391.1l8.6-5.1c0.5-0.3,1.2-0.2,1.6,0.3l4.5,5.6c0.5,0.6,0.3,1.5-0.3,1.8l-8.6,5.1        c-0.5,0.3-1.2,0.2-1.6-0.3l-4.5-5.6C728.5,392.3,728.7,391.4,729.3,391.1z" />
					</g>
					<g class="st5">
						<path class="st6" d="M769.8,329.4l8.6-5.1c0.5-0.3,1.2-0.2,1.6,0.3l4.5,5.6c0.5,0.6,0.3,1.5-0.3,1.8l-8.6,5.1        c-0.5,0.3-1.2,0.2-1.6-0.3l-4.5-5.6C769,330.6,769.2,329.7,769.8,329.4z" />
						<path class="st6" d="M757.6,336.5l8.6-5.1c0.5-0.3,1.2-0.2,1.6,0.3l4.5,5.6c0.5,0.6,0.3,1.5-0.3,1.8l-8.6,5.1        c-0.5,0.3-1.2,0.2-1.6-0.3l-4.5-5.6C756.8,337.7,756.9,336.9,757.6,336.5z" />
						<path class="st6" d="M745.3,343.6l8.6-5.1c0.5-0.3,1.2-0.2,1.6,0.3l4.5,5.6c0.5,0.6,0.3,1.5-0.3,1.8l-8.6,5.1        c-0.5,0.3-1.2,0.2-1.6-0.3l-4.5-5.6C744.5,344.9,744.7,344,745.3,343.6z" />
						<path class="st6" d="M733,350.8l8.6-5.1c0.5-0.3,1.2-0.2,1.6,0.3l4.5,5.6c0.5,0.6,0.3,1.5-0.3,1.8l-8.6,5.1        c-0.5,0.3-1.2,0.2-1.6-0.3l-4.5-5.6C732.2,352,732.4,351.1,733,350.8z" />
						<path class="st6" d="M720.7,357.9l8.6-5.1c0.5-0.3,1.2-0.2,1.6,0.3l4.5,5.6c0.5,0.6,0.3,1.5-0.3,1.8l-8.6,5.1        c-0.5,0.3-1.2,0.2-1.6-0.3l-4.5-5.6C719.9,359.1,720.1,358.3,720.7,357.9z" />
						<path class="st6" d="M708.5,365l8.6-5.1c0.5-0.3,1.2-0.2,1.6,0.3l4.5,5.6c0.5,0.6,0.3,1.5-0.3,1.8l-8.6,5.1        c-0.5,0.3-1.2,0.2-1.6-0.3l-4.5-5.6C707.7,366.3,707.8,365.4,708.5,365z" />
					</g>
					<line class="st7" x1="734" y1="401.6" x2="734" y2="403.2" />
				</g>
				<polygon class="st4" points="711.6,390.4 715.2,392.3 715.2,379.5 711.6,375.1     " />
				<polygon class="st4" points="716.2,391.7 715.2,392.3 715.2,379.5 716.3,380.9     " />
			</g>
		</g>
		<g>
			<g>
				<g>
					<polygon class="st4" points="801.9,308.9 876.8,265.3 906,302 906,303.6 831.1,347.2 801.9,310.5      " />
					<polygon class="st4" points="801.9,308.9 876.8,265.3 906,302 831.1,345.6      " />
					<g class="st5">
						<path class="st6" d="M873.9,282l8.6-5.1c0.5-0.3,1.2-0.2,1.6,0.3l4.5,5.6c0.5,0.6,0.3,1.5-0.3,1.8l-8.6,5.1        c-0.5,0.3-1.2,0.2-1.6-0.3l-4.5-5.6C873.1,283.3,873.3,282.4,873.9,282z" />
						<path class="st6" d="M861.7,289.2l8.6-5.1c0.5-0.3,1.2-0.2,1.6,0.3l4.5,5.6c0.5,0.6,0.3,1.5-0.3,1.8l-8.6,5.1        c-0.5,0.3-1.2,0.2-1.6-0.3l-4.5-5.6C860.9,290.4,861,289.6,861.7,289.2z" />
						<path class="st6" d="M849.4,296.3l8.6-5.1c0.5-0.3,1.2-0.2,1.6,0.3l4.5,5.6c0.5,0.6,0.3,1.5-0.3,1.8l-8.6,5.1        c-0.5,0.3-1.2,0.2-1.6-0.3l-4.5-5.6C848.6,297.5,848.7,296.7,849.4,296.3z" />
						<path class="st6" d="M837.1,303.4l8.6-5.1c0.5-0.3,1.2-0.2,1.6,0.3l4.5,5.6c0.5,0.6,0.3,1.5-0.3,1.8l-8.6,5.1        c-0.5,0.3-1.2,0.2-1.6-0.3l-4.5-5.6C836.3,304.7,836.5,303.8,837.1,303.4z" />
						<path class="st6" d="M824.8,310.6l8.6-5.1c0.5-0.3,1.2-0.2,1.6,0.3l4.5,5.6c0.5,0.6,0.3,1.5-0.3,1.8l-8.6,5.1        c-0.5,0.3-1.2,0.2-1.6-0.3l-4.5-5.6C824,311.8,824.2,310.9,824.8,310.6z" />
						<path class="st6" d="M812.6,317.7l8.6-5.1c0.5-0.3,1.2-0.2,1.6,0.3l4.5,5.6c0.5,0.6,0.3,1.5-0.3,1.8l-8.6,5.1        c-0.5,0.3-1.2,0.2-1.6-0.3l-4.5-5.6C811.8,318.9,811.9,318.1,812.6,317.7z" />
					</g>
					<g class="st5">
						<path class="st6" d="M880.9,290.7l8.6-5.1c0.5-0.3,1.2-0.2,1.6,0.3l4.5,5.6c0.5,0.6,0.3,1.5-0.3,1.8l-8.6,5.1        c-0.5,0.3-1.2,0.2-1.6-0.3l-4.5-5.6C880.1,292,880.2,291.1,880.9,290.7z" />
						<path class="st6" d="M868.6,297.8l8.6-5.1c0.5-0.3,1.2-0.2,1.6,0.3l4.5,5.6c0.5,0.6,0.3,1.5-0.3,1.8l-8.6,5.1        c-0.5,0.3-1.2,0.2-1.6-0.3l-4.5-5.6C867.8,299.1,868,298.2,868.6,297.8z" />
						<path class="st6" d="M856.3,305l8.6-5.1c0.5-0.3,1.2-0.2,1.6,0.3l4.5,5.6c0.5,0.6,0.3,1.5-0.3,1.8l-8.6,5.1        c-0.5,0.3-1.2,0.2-1.6-0.3l-4.5-5.6C855.5,306.2,855.7,305.4,856.3,305z" />
						<path class="st6" d="M844.1,312.1l8.6-5.1c0.5-0.3,1.2-0.2,1.6,0.3l4.5,5.6c0.5,0.6,0.3,1.5-0.3,1.8l-8.6,5.1        c-0.5,0.3-1.2,0.2-1.6-0.3l-4.5-5.6C843.3,313.4,843.4,312.5,844.1,312.1z" />
						<path class="st6" d="M831.8,319.2l8.6-5.1c0.5-0.3,1.2-0.2,1.6,0.3l4.5,5.6c0.5,0.6,0.3,1.5-0.3,1.8l-8.6,5.1        c-0.5,0.3-1.2,0.2-1.6-0.3l-4.5-5.6C831,320.5,831.2,319.6,831.8,319.2z" />
						<path class="st6" d="M819.5,326.4l8.6-5.1c0.5-0.3,1.2-0.2,1.6,0.3l4.5,5.6c0.5,0.6,0.3,1.5-0.3,1.8l-8.6,5.1        c-0.5,0.3-1.2,0.2-1.6-0.3l-4.5-5.6C818.7,327.6,818.9,326.8,819.5,326.4z" />
					</g>
					<g class="st5">
						<path class="st6" d="M887.8,299.4l8.6-5.1c0.5-0.3,1.2-0.2,1.6,0.3l4.5,5.6c0.5,0.6,0.3,1.5-0.3,1.8l-8.6,5.1        c-0.5,0.3-1.2,0.2-1.6-0.3l-4.5-5.6C887,300.6,887.2,299.8,887.8,299.4z" />
						<path class="st6" d="M875.6,306.5l8.6-5.1c0.5-0.3,1.2-0.2,1.6,0.3l4.5,5.6c0.5,0.6,0.3,1.5-0.3,1.8l-8.6,5.1        c-0.5,0.3-1.2,0.2-1.6-0.3l-4.5-5.6C874.8,307.8,874.9,306.9,875.6,306.5z" />
						<path class="st6" d="M863.3,313.7l8.6-5.1c0.5-0.3,1.2-0.2,1.6,0.3l4.5,5.6c0.5,0.6,0.3,1.5-0.3,1.8l-8.6,5.1        c-0.5,0.3-1.2,0.2-1.6-0.3l-4.5-5.6C862.5,314.9,862.7,314,863.3,313.7z" />
						<path class="st6" d="M851,320.8l8.6-5.1c0.5-0.3,1.2-0.2,1.6,0.3l4.5,5.6c0.5,0.6,0.3,1.5-0.3,1.8l-8.6,5.1        c-0.5,0.3-1.2,0.2-1.6-0.3l-4.5-5.6C850.2,322,850.4,321.2,851,320.8z" />
						<path class="st6" d="M838.8,327.9l8.6-5.1c0.5-0.3,1.2-0.2,1.6,0.3l4.5,5.6c0.5,0.6,0.3,1.5-0.3,1.8l-8.6,5.1        c-0.5,0.3-1.2,0.2-1.6-0.3l-4.5-5.6C837.9,329.2,838.1,328.3,838.8,327.9z" />
						<path class="st6" d="M826.5,335.1l8.6-5.1c0.5-0.3,1.2-0.2,1.6,0.3l4.5,5.6c0.5,0.6,0.3,1.5-0.3,1.8l-8.6,5.1        c-0.5,0.3-1.2,0.2-1.6-0.3l-4.5-5.6C825.7,336.3,825.8,335.4,826.5,335.1z" />
					</g>
					<g class="st5">
						<path class="st6" d="M867,273.4l8.6-5.1c0.5-0.3,1.2-0.2,1.6,0.3l4.5,5.6c0.5,0.6,0.3,1.5-0.3,1.8l-8.6,5.1        c-0.5,0.3-1.2,0.2-1.6-0.3l-4.5-5.6C866.2,274.6,866.3,273.7,867,273.4z" />
						<path class="st6" d="M854.7,280.5l8.6-5.1c0.5-0.3,1.2-0.2,1.6,0.3l4.5,5.6c0.5,0.6,0.3,1.5-0.3,1.8l-8.6,5.1        c-0.5,0.3-1.2,0.2-1.6-0.3l-4.5-5.6C853.9,281.7,854.1,280.9,854.7,280.5z" />
						<path class="st6" d="M842.4,287.6l8.6-5.1c0.5-0.3,1.2-0.2,1.6,0.3l4.5,5.6c0.5,0.6,0.3,1.5-0.3,1.8l-8.6,5.1        c-0.5,0.3-1.2,0.2-1.6-0.3l-4.5-5.6C841.6,288.9,841.8,288,842.4,287.6z" />
						<path class="st6" d="M830.2,294.8l8.6-5.1c0.5-0.3,1.2-0.2,1.6,0.3l4.5,5.6c0.5,0.6,0.3,1.5-0.3,1.8l-8.6,5.1        c-0.5,0.3-1.2,0.2-1.6-0.3l-4.5-5.6C829.4,296,829.5,295.1,830.2,294.8z" />
						<path class="st6" d="M817.9,301.9l8.6-5.1c0.5-0.3,1.2-0.2,1.6,0.3l4.5,5.6c0.5,0.6,0.3,1.5-0.3,1.8l-8.6,5.1        c-0.5,0.3-1.2,0.2-1.6-0.3l-4.5-5.6C817.1,303.1,817.2,302.3,817.9,301.9z" />
						<path class="st6" d="M805.6,309l8.6-5.1c0.5-0.3,1.2-0.2,1.6,0.3l4.5,5.6c0.5,0.6,0.3,1.5-0.3,1.8l-8.6,5.1        c-0.5,0.3-1.2,0.2-1.6-0.3l-4.5-5.6C804.8,310.3,805,309.4,805.6,309z" />
					</g>
					<line class="st7" x1="831.1" y1="345.6" x2="831.1" y2="347.2" />
				</g>
				<polygon class="st4" points="808.7,334.4 812.3,336.3 812.3,323.5 808.7,319.1     " />
				<polygon class="st4" points="813.3,335.7 812.3,336.3 812.3,323.5 813.5,324.9     " />
			</g>
		</g>
		<g>
			<g>
				<g>
					<polygon class="st4" points="601.8,238.9 676.6,195.4 705.9,232.1 705.9,233.7 631,277.2 601.8,240.5      " />
					<polygon class="st4" points="601.8,238.9 676.6,195.4 705.9,232.1 631,275.7      " />
					<g class="st5">
						<path class="st6" d="M673.8,212.1l8.6-5.1c0.5-0.3,1.2-0.2,1.6,0.3l4.5,5.6c0.5,0.6,0.3,1.5-0.3,1.8l-8.6,5.1        c-0.5,0.3-1.2,0.2-1.6-0.3l-4.5-5.6C673,213.4,673.2,212.5,673.8,212.1z" />
						<path class="st6" d="M661.5,219.2l8.6-5.1c0.5-0.3,1.2-0.2,1.6,0.3l4.5,5.6c0.5,0.6,0.3,1.5-0.3,1.8l-8.6,5.1        c-0.5,0.3-1.2,0.2-1.6-0.3l-4.5-5.6C660.7,220.5,660.9,219.6,661.5,219.2z" />
						<path class="st6" d="M649.3,226.4l8.6-5.1c0.5-0.3,1.2-0.2,1.6,0.3l4.5,5.6c0.5,0.6,0.3,1.5-0.3,1.8l-8.6,5.1        c-0.5,0.3-1.2,0.2-1.6-0.3l-4.5-5.6C648.5,227.6,648.6,226.8,649.3,226.4z" />
						<path class="st6" d="M637,233.5l8.6-5.1c0.5-0.3,1.2-0.2,1.6,0.3l4.5,5.6c0.5,0.6,0.3,1.5-0.3,1.8l-8.6,5.1        c-0.5,0.3-1.2,0.2-1.6-0.3l-4.5-5.6C636.2,234.7,636.3,233.9,637,233.5z" />
						<path class="st6" d="M624.7,240.6l8.6-5.1c0.5-0.3,1.2-0.2,1.6,0.3l4.5,5.6c0.5,0.6,0.3,1.5-0.3,1.8l-8.6,5.1        c-0.5,0.3-1.2,0.2-1.6-0.3l-4.5-5.6C623.9,241.9,624.1,241,624.7,240.6z" />
						<path class="st6" d="M612.4,247.8l8.6-5.1c0.5-0.3,1.2-0.2,1.6,0.3l4.5,5.6c0.5,0.6,0.3,1.5-0.3,1.8l-8.6,5.1        c-0.5,0.3-1.2,0.2-1.6-0.3l-4.5-5.6C611.6,249,611.8,248.2,612.4,247.8z" />
					</g>
					<g class="st5">
						<path class="st6" d="M680.8,220.8l8.6-5.1c0.5-0.3,1.2-0.2,1.6,0.3l4.5,5.6c0.5,0.6,0.3,1.5-0.3,1.8l-8.6,5.1        c-0.5,0.3-1.2,0.2-1.6-0.3l-4.5-5.6C680,222,680.1,221.2,680.8,220.8z" />
						<path class="st6" d="M668.5,227.9l8.6-5.1c0.5-0.3,1.2-0.2,1.6,0.3l4.5,5.6c0.5,0.6,0.3,1.5-0.3,1.8l-8.6,5.1        c-0.5,0.3-1.2,0.2-1.6-0.3l-4.5-5.6C667.7,229.2,667.8,228.3,668.5,227.9z" />
						<path class="st6" d="M656.2,235l8.6-5.1c0.5-0.3,1.2-0.2,1.6,0.3l4.5,5.6c0.5,0.6,0.3,1.5-0.3,1.8l-8.6,5.1        c-0.5,0.3-1.2,0.2-1.6-0.3l-4.5-5.6C655.4,236.3,655.6,235.4,656.2,235z" />
						<path class="st6" d="M643.9,242.2l8.6-5.1c0.5-0.3,1.2-0.2,1.6,0.3l4.5,5.6c0.5,0.6,0.3,1.5-0.3,1.8l-8.6,5.1        c-0.5,0.3-1.2,0.2-1.6-0.3l-4.5-5.6C643.1,243.4,643.3,242.6,643.9,242.2z" />
						<path class="st6" d="M631.7,249.3l8.6-5.1c0.5-0.3,1.2-0.2,1.6,0.3l4.5,5.6c0.5,0.6,0.3,1.5-0.3,1.8l-8.6,5.1        c-0.5,0.3-1.2,0.2-1.6-0.3l-4.5-5.6C630.9,250.6,631,249.7,631.7,249.3z" />
						<path class="st6" d="M619.4,256.4l8.6-5.1c0.5-0.3,1.2-0.2,1.6,0.3l4.5,5.6c0.5,0.6,0.3,1.5-0.3,1.8l-8.6,5.1        c-0.5,0.3-1.2,0.2-1.6-0.3l-4.5-5.6C618.6,257.7,618.7,256.8,619.4,256.4z" />
					</g>
					<g class="st5">
						<path class="st6" d="M687.7,229.5l8.6-5.1c0.5-0.3,1.2-0.2,1.6,0.3l4.5,5.6c0.5,0.6,0.3,1.5-0.3,1.8l-8.6,5.1        c-0.5,0.3-1.2,0.2-1.6-0.3l-4.5-5.6C686.9,230.7,687.1,229.8,687.7,229.5z" />
						<path class="st6" d="M675.4,236.6l8.6-5.1c0.5-0.3,1.2-0.2,1.6,0.3l4.5,5.6c0.5,0.6,0.3,1.5-0.3,1.8l-8.6,5.1        c-0.5,0.3-1.2,0.2-1.6-0.3l-4.5-5.6C674.6,237.8,674.8,237,675.4,236.6z" />
						<path class="st6" d="M663.2,243.7l8.6-5.1c0.5-0.3,1.2-0.2,1.6,0.3l4.5,5.6c0.5,0.6,0.3,1.5-0.3,1.8l-8.6,5.1        c-0.5,0.3-1.2,0.2-1.6-0.3l-4.5-5.6C662.4,245,662.5,244.1,663.2,243.7z" />
						<path class="st6" d="M650.9,250.9l8.6-5.1c0.5-0.3,1.2-0.2,1.6,0.3l4.5,5.6c0.5,0.6,0.3,1.5-0.3,1.8l-8.6,5.1        c-0.5,0.3-1.2,0.2-1.6-0.3l-4.5-5.6C650.1,252.1,650.2,251.2,650.9,250.9z" />
						<path class="st6" d="M638.6,258l8.6-5.1c0.5-0.3,1.2-0.2,1.6,0.3l4.5,5.6c0.5,0.6,0.3,1.5-0.3,1.8l-8.6,5.1        c-0.5,0.3-1.2,0.2-1.6-0.3l-4.5-5.6C637.8,259.2,638,258.4,638.6,258z" />
						<path class="st6" d="M626.3,265.1l8.6-5.1c0.5-0.3,1.2-0.2,1.6,0.3l4.5,5.6c0.5,0.6,0.3,1.5-0.3,1.8l-8.6,5.1        c-0.5,0.3-1.2,0.2-1.6-0.3L626,267C625.5,266.4,625.7,265.5,626.3,265.1z" />
					</g>
					<g class="st5">
						<path class="st6" d="M666.9,203.4l8.6-5.1c0.5-0.3,1.2-0.2,1.6,0.3l4.5,5.6c0.5,0.6,0.3,1.5-0.3,1.8l-8.6,5.1        c-0.5,0.3-1.2,0.2-1.6-0.3l-4.5-5.6C666,204.7,666.2,203.8,666.9,203.4z" />
						<path class="st6" d="M654.6,210.6l8.6-5.1c0.5-0.3,1.2-0.2,1.6,0.3l4.5,5.6c0.5,0.6,0.3,1.5-0.3,1.8l-8.6,5.1        c-0.5,0.3-1.2,0.2-1.6-0.3l-4.5-5.6C653.8,211.8,653.9,210.9,654.6,210.6z" />
						<path class="st6" d="M642.3,217.7l8.6-5.1c0.5-0.3,1.2-0.2,1.6,0.3l4.5,5.6c0.5,0.6,0.3,1.5-0.3,1.8l-8.6,5.1        c-0.5,0.3-1.2,0.2-1.6-0.3l-4.5-5.6C641.5,218.9,641.7,218.1,642.3,217.7z" />
						<path class="st6" d="M630,224.8l8.6-5.1c0.5-0.3,1.2-0.2,1.6,0.3l4.5,5.6c0.5,0.6,0.3,1.5-0.3,1.8l-8.6,5.1        c-0.5,0.3-1.2,0.2-1.6-0.3l-4.5-5.6C629.2,226.1,629.4,225.2,630,224.8z" />
						<path class="st6" d="M617.8,232l8.6-5.1c0.5-0.3,1.2-0.2,1.6,0.3l4.5,5.6c0.5,0.6,0.3,1.5-0.3,1.8l-8.6,5.1        c-0.5,0.3-1.2,0.2-1.6-0.3l-4.5-5.6C616.9,233.2,617.1,232.3,617.8,232z" />
						<path class="st6" d="M605.5,239.1l8.6-5.1c0.5-0.3,1.2-0.2,1.6,0.3l4.5,5.6c0.5,0.6,0.3,1.5-0.3,1.8l-8.6,5.1        c-0.5,0.3-1.2,0.2-1.6-0.3l-4.5-5.6C604.7,240.3,604.8,239.5,605.5,239.1z" />
					</g>
					<line class="st7" x1="631" y1="275.7" x2="631" y2="277.2" />
				</g>
				<polygon class="st4" points="608.6,264.5 612.2,266.3 612.2,253.6 608.6,249.2     " />
				<polygon class="st4" points="613.2,265.7 612.2,266.3 612.2,253.6 613.3,255     " />
			</g>
		</g>
		<g>
			<g>
				<g>
					<polygon class="st4" points="698.9,182.9 773.8,139.4 803,176.1 803,177.7 728.2,221.2 698.9,184.5      " />
					<polygon class="st4" points="698.9,182.9 773.8,139.4 803,176.1 728.2,219.6      " />
					<g class="st5">
						<path class="st6" d="M770.9,156.1l8.6-5.1c0.5-0.3,1.2-0.2,1.6,0.3l4.5,5.6c0.5,0.6,0.3,1.5-0.3,1.8l-8.6,5.1        c-0.5,0.3-1.2,0.2-1.6-0.3l-4.5-5.6C770.1,157.3,770.3,156.5,770.9,156.1z" />
						<path class="st6" d="M758.7,163.2l8.6-5.1c0.5-0.3,1.2-0.2,1.6,0.3l4.5,5.6c0.5,0.6,0.3,1.5-0.3,1.8l-8.6,5.1        c-0.5,0.3-1.2,0.2-1.6-0.3l-4.5-5.6C757.9,164.5,758,163.6,758.7,163.2z" />
						<path class="st6" d="M746.4,170.4l8.6-5.1c0.5-0.3,1.2-0.2,1.6,0.3l4.5,5.6c0.5,0.6,0.3,1.5-0.3,1.8l-8.6,5.1        c-0.5,0.3-1.2,0.2-1.6-0.3l-4.5-5.6C745.6,171.6,745.8,170.7,746.4,170.4z" />
						<path class="st6" d="M734.1,177.5l8.6-5.1c0.5-0.3,1.2-0.2,1.6,0.3l4.5,5.6c0.5,0.6,0.3,1.5-0.3,1.8l-8.6,5.1        c-0.5,0.3-1.2,0.2-1.6-0.3l-4.5-5.6C733.3,178.7,733.5,177.9,734.1,177.5z" />
						<path class="st6" d="M721.8,184.6l8.6-5.1c0.5-0.3,1.2-0.2,1.6,0.3l4.5,5.6c0.5,0.6,0.3,1.5-0.3,1.8l-8.6,5.1        c-0.5,0.3-1.2,0.2-1.6-0.3l-4.5-5.6C721,185.9,721.2,185,721.8,184.6z" />
						<path class="st6" d="M709.6,191.8l8.6-5.1c0.5-0.3,1.2-0.2,1.6,0.3l4.5,5.6c0.5,0.6,0.3,1.5-0.3,1.8l-8.6,5.1        c-0.5,0.3-1.2,0.2-1.6-0.3l-4.5-5.6C708.8,193,708.9,192.1,709.6,191.8z" />
					</g>
					<g class="st5">
						<path class="st6" d="M777.9,164.8l8.6-5.1c0.5-0.3,1.2-0.2,1.6,0.3l4.5,5.6c0.5,0.6,0.3,1.5-0.3,1.8l-8.6,5.1        c-0.5,0.3-1.2,0.2-1.6-0.3l-4.5-5.6C777.1,166,777.3,165.2,777.9,164.8z" />
						<path class="st6" d="M765.6,171.9l8.6-5.1c0.5-0.3,1.2-0.2,1.6,0.3l4.5,5.6c0.5,0.6,0.3,1.5-0.3,1.8l-8.6,5.1        c-0.5,0.3-1.2,0.2-1.6-0.3l-4.5-5.6C764.8,173.2,765,172.3,765.6,171.9z" />
						<path class="st6" d="M753.4,179l8.6-5.1c0.5-0.3,1.2-0.2,1.6,0.3l4.5,5.6c0.5,0.6,0.3,1.5-0.3,1.8l-8.6,5.1        c-0.5,0.3-1.2,0.2-1.6-0.3l-4.5-5.6C752.5,180.3,752.7,179.4,753.4,179z" />
						<path class="st6" d="M741.1,186.2l8.6-5.1c0.5-0.3,1.2-0.2,1.6,0.3l4.5,5.6c0.5,0.6,0.3,1.5-0.3,1.8l-8.6,5.1        c-0.5,0.3-1.2,0.2-1.6-0.3l-4.5-5.6C740.3,187.4,740.4,186.6,741.1,186.2z" />
						<path class="st6" d="M728.8,193.3l8.6-5.1c0.5-0.3,1.2-0.2,1.6,0.3l4.5,5.6c0.5,0.6,0.3,1.5-0.3,1.8l-8.6,5.1        c-0.5,0.3-1.2,0.2-1.6-0.3l-4.5-5.6C728,194.6,728.2,193.7,728.8,193.3z" />
						<path class="st6" d="M716.5,200.4l8.6-5.1c0.5-0.3,1.2-0.2,1.6,0.3l4.5,5.6c0.5,0.6,0.3,1.5-0.3,1.8l-8.6,5.1        c-0.5,0.3-1.2,0.2-1.6-0.3l-4.5-5.6C715.7,201.7,715.9,200.8,716.5,200.4z" />
					</g>
					<g class="st5">
						<path class="st6" d="M784.9,173.5l8.6-5.1c0.5-0.3,1.2-0.2,1.6,0.3l4.5,5.6c0.5,0.6,0.3,1.5-0.3,1.8l-8.6,5.1        c-0.5,0.3-1.2,0.2-1.6-0.3l-4.5-5.6C784,174.7,784.2,173.8,784.9,173.5z" />
						<path class="st6" d="M772.6,180.6l8.6-5.1c0.5-0.3,1.2-0.2,1.6,0.3l4.5,5.6c0.5,0.6,0.3,1.5-0.3,1.8l-8.6,5.1        c-0.5,0.3-1.2,0.2-1.6-0.3l-4.5-5.6C771.8,181.8,771.9,181,772.6,180.6z" />
						<path class="st6" d="M760.3,187.7l8.6-5.1c0.5-0.3,1.2-0.2,1.6,0.3l4.5,5.6c0.5,0.6,0.3,1.5-0.3,1.8l-8.6,5.1        c-0.5,0.3-1.2,0.2-1.6-0.3l-4.5-5.6C759.5,189,759.7,188.1,760.3,187.7z" />
						<path class="st6" d="M748,194.9l8.6-5.1c0.5-0.3,1.2-0.2,1.6,0.3l4.5,5.6c0.5,0.6,0.3,1.5-0.3,1.8l-8.6,5.1        c-0.5,0.3-1.2,0.2-1.6-0.3l-4.5-5.6C747.2,196.1,747.4,195.2,748,194.9z" />
						<path class="st6" d="M735.8,202l8.6-5.1c0.5-0.3,1.2-0.2,1.6,0.3l4.5,5.6c0.5,0.6,0.3,1.5-0.3,1.8l-8.6,5.1        c-0.5,0.3-1.2,0.2-1.6-0.3l-4.5-5.6C735,203.2,735.1,202.4,735.8,202z" />
						<path class="st6" d="M723.5,209.1l8.6-5.1c0.5-0.3,1.2-0.2,1.6,0.3l4.5,5.6c0.5,0.6,0.3,1.5-0.3,1.8l-8.6,5.1        c-0.5,0.3-1.2,0.2-1.6-0.3l-4.5-5.6C722.7,210.4,722.8,209.5,723.5,209.1z" />
					</g>
					<g class="st5">
						<path class="st6" d="M764,147.4l8.6-5.1c0.5-0.3,1.2-0.2,1.6,0.3l4.5,5.6c0.5,0.6,0.3,1.5-0.3,1.8l-8.6,5.1        c-0.5,0.3-1.2,0.2-1.6-0.3l-4.5-5.6C763.2,148.7,763.3,147.8,764,147.4z" />
						<path class="st6" d="M751.7,154.6l8.6-5.1c0.5-0.3,1.2-0.2,1.6,0.3l4.5,5.6c0.5,0.6,0.3,1.5-0.3,1.8l-8.6,5.1        c-0.5,0.3-1.2,0.2-1.6-0.3l-4.5-5.6C750.9,155.8,751.1,154.9,751.7,154.6z" />
						<path class="st6" d="M739.4,161.7l8.6-5.1c0.5-0.3,1.2-0.2,1.6,0.3l4.5,5.6c0.5,0.6,0.3,1.5-0.3,1.8l-8.6,5.1        c-0.5,0.3-1.2,0.2-1.6-0.3l-4.5-5.6C738.6,162.9,738.8,162.1,739.4,161.7z" />
						<path class="st6" d="M727.2,168.8l8.6-5.1c0.5-0.3,1.2-0.2,1.6,0.3l4.5,5.6c0.5,0.6,0.3,1.5-0.3,1.8l-8.6,5.1        c-0.5,0.3-1.2,0.2-1.6-0.3l-4.5-5.6C726.4,170.1,726.5,169.2,727.2,168.8z" />
						<path class="st6" d="M714.9,176l8.6-5.1c0.5-0.3,1.2-0.2,1.6,0.3l4.5,5.6c0.5,0.6,0.3,1.5-0.3,1.8l-8.6,5.1        c-0.5,0.3-1.2,0.2-1.6-0.3l-4.5-5.6C714.1,177.2,714.2,176.3,714.9,176z" />
						<path class="st6" d="M702.6,183.1l8.6-5.1c0.5-0.3,1.2-0.2,1.6,0.3l4.5,5.6c0.5,0.6,0.3,1.5-0.3,1.8l-8.6,5.1        c-0.5,0.3-1.2,0.2-1.6-0.3l-4.5-5.6C701.8,184.3,702,183.5,702.6,183.1z" />
					</g>
					<line class="st7" x1="728.2" y1="219.6" x2="728.2" y2="221.2" />
				</g>
				<polygon class="st4" points="705.7,208.4 709.3,210.3 709.3,197.6 705.7,193.2     " />
				<polygon class="st4" points="710.3,209.7 709.3,210.3 709.3,197.6 710.5,199     " />
			</g>
		</g>
		<g>
			<g>
				<g>
					<polygon class="st4" points="504.6,294.9 579.5,251.3 608.7,288 608.7,289.6 533.9,333.2 504.6,296.5      " />
					<polygon class="st4" points="504.6,294.9 579.5,251.3 608.7,288 533.9,331.6      " />
					<g class="st5">
						<path class="st6" d="M576.7,268l8.6-5.1c0.5-0.3,1.2-0.2,1.6,0.3l4.5,5.6c0.5,0.6,0.3,1.5-0.3,1.8l-8.6,5.1        c-0.5,0.3-1.2,0.2-1.6-0.3l-4.5-5.6C575.9,269.3,576,268.4,576.7,268z" />
						<path class="st6" d="M564.4,275.2l8.6-5.1c0.5-0.3,1.2-0.2,1.6,0.3l4.5,5.6c0.5,0.6,0.3,1.5-0.3,1.8l-8.6,5.1        c-0.5,0.3-1.2,0.2-1.6-0.3l-4.5-5.6C563.6,276.4,563.7,275.6,564.4,275.2z" />
						<path class="st6" d="M552.1,282.3l8.6-5.1c0.5-0.3,1.2-0.2,1.6,0.3l4.5,5.6c0.5,0.6,0.3,1.5-0.3,1.8l-8.6,5.1        c-0.5,0.3-1.2,0.2-1.6-0.3l-4.5-5.6C551.3,283.6,551.5,282.7,552.1,282.3z" />
						<path class="st6" d="M539.8,289.4l8.6-5.1c0.5-0.3,1.2-0.2,1.6,0.3l4.5,5.6c0.5,0.6,0.3,1.5-0.3,1.8l-8.6,5.1        c-0.5,0.3-1.2,0.2-1.6-0.3l-4.5-5.6C539,290.7,539.2,289.8,539.8,289.4z" />
						<path class="st6" d="M527.6,296.6l8.6-5.1c0.5-0.3,1.2-0.2,1.6,0.3l4.5,5.6c0.5,0.6,0.3,1.5-0.3,1.8l-8.6,5.1        c-0.5,0.3-1.2,0.2-1.6-0.3l-4.5-5.6C526.8,297.8,526.9,297,527.6,296.6z" />
						<path class="st6" d="M515.3,303.7l8.6-5.1c0.5-0.3,1.2-0.2,1.6,0.3l4.5,5.6c0.5,0.6,0.3,1.5-0.3,1.8l-8.6,5.1        c-0.5,0.3-1.2,0.2-1.6-0.3l-4.5-5.6C514.5,305,514.6,304.1,515.3,303.7z" />
					</g>
					<g class="st5">
						<path class="st6" d="M583.6,276.7l8.6-5.1c0.5-0.3,1.2-0.2,1.6,0.3l4.5,5.6c0.5,0.6,0.3,1.5-0.3,1.8l-8.6,5.1        c-0.5,0.3-1.2,0.2-1.6-0.3l-4.5-5.6C582.8,278,583,277.1,583.6,276.7z" />
						<path class="st6" d="M571.3,283.9l8.6-5.1c0.5-0.3,1.2-0.2,1.6,0.3l4.5,5.6c0.5,0.6,0.3,1.5-0.3,1.8l-8.6,5.1        c-0.5,0.3-1.2,0.2-1.6-0.3l-4.5-5.6C570.5,285.1,570.7,284.2,571.3,283.9z" />
						<path class="st6" d="M559.1,291l8.6-5.1c0.5-0.3,1.2-0.2,1.6,0.3l4.5,5.6c0.5,0.6,0.3,1.5-0.3,1.8l-8.6,5.1        c-0.5,0.3-1.2,0.2-1.6-0.3l-4.5-5.6C558.3,292.2,558.4,291.4,559.1,291z" />
						<path class="st6" d="M546.8,298.1l8.6-5.1c0.5-0.3,1.2-0.2,1.6,0.3l4.5,5.6c0.5,0.6,0.3,1.5-0.3,1.8l-8.6,5.1        c-0.5,0.3-1.2,0.2-1.6-0.3l-4.5-5.6C546,299.4,546.2,298.5,546.8,298.1z" />
						<path class="st6" d="M534.5,305.3l8.6-5.1c0.5-0.3,1.2-0.2,1.6,0.3l4.5,5.6c0.5,0.6,0.3,1.5-0.3,1.8l-8.6,5.1        c-0.5,0.3-1.2,0.2-1.6-0.3l-4.5-5.6C533.7,306.5,533.9,305.6,534.5,305.3z" />
						<path class="st6" d="M522.2,312.4l8.6-5.1c0.5-0.3,1.2-0.2,1.6,0.3l4.5,5.6c0.5,0.6,0.3,1.5-0.3,1.8l-8.6,5.1        c-0.5,0.3-1.2,0.2-1.6-0.3l-4.5-5.6C521.4,313.6,521.6,312.8,522.2,312.4z" />
					</g>
					<g class="st5">
						<path class="st6" d="M590.6,285.4l8.6-5.1c0.5-0.3,1.2-0.2,1.6,0.3l4.5,5.6c0.5,0.6,0.3,1.5-0.3,1.8l-8.6,5.1        c-0.5,0.3-1.2,0.2-1.6-0.3l-4.5-5.6C589.8,286.6,589.9,285.8,590.6,285.4z" />
						<path class="st6" d="M578.3,292.5l8.6-5.1c0.5-0.3,1.2-0.2,1.6,0.3l4.5,5.6c0.5,0.6,0.3,1.5-0.3,1.8l-8.6,5.1        c-0.5,0.3-1.2,0.2-1.6-0.3l-4.5-5.6C577.5,293.8,577.7,292.9,578.3,292.5z" />
						<path class="st6" d="M566,299.7l8.6-5.1c0.5-0.3,1.2-0.2,1.6,0.3l4.5,5.6c0.5,0.6,0.3,1.5-0.3,1.8l-8.6,5.1        c-0.5,0.3-1.2,0.2-1.6-0.3l-4.5-5.6C565.2,300.9,565.4,300,566,299.7z" />
						<path class="st6" d="M553.8,306.8l8.6-5.1c0.5-0.3,1.2-0.2,1.6,0.3l4.5,5.6c0.5,0.6,0.3,1.5-0.3,1.8l-8.6,5.1        c-0.5,0.3-1.2,0.2-1.6-0.3l-4.5-5.6C552.9,308,553.1,307.2,553.8,306.8z" />
						<path class="st6" d="M541.5,313.9l8.6-5.1c0.5-0.3,1.2-0.2,1.6,0.3l4.5,5.6c0.5,0.6,0.3,1.5-0.3,1.8l-8.6,5.1        c-0.5,0.3-1.2,0.2-1.6-0.3l-4.5-5.6C540.7,315.2,540.8,314.3,541.5,313.9z" />
						<path class="st6" d="M529.2,321.1l8.6-5.1c0.5-0.3,1.2-0.2,1.6,0.3l4.5,5.6c0.5,0.6,0.3,1.5-0.3,1.8l-8.6,5.1        c-0.5,0.3-1.2,0.2-1.6-0.3l-4.5-5.6C528.4,322.3,528.6,321.4,529.2,321.1z" />
					</g>
					<g class="st5">
						<path class="st6" d="M569.7,259.4l8.6-5.1c0.5-0.3,1.2-0.2,1.6,0.3l4.5,5.6c0.5,0.6,0.3,1.5-0.3,1.8l-8.6,5.1        c-0.5,0.3-1.2,0.2-1.6-0.3l-4.5-5.6C568.9,260.6,569.1,259.8,569.7,259.4z" />
						<path class="st6" d="M557.4,266.5l8.6-5.1c0.5-0.3,1.2-0.2,1.6,0.3l4.5,5.6c0.5,0.6,0.3,1.5-0.3,1.8l-8.6,5.1        c-0.5,0.3-1.2,0.2-1.6-0.3l-4.5-5.6C556.6,267.7,556.8,266.9,557.4,266.5z" />
						<path class="st6" d="M545.2,273.6l8.6-5.1c0.5-0.3,1.2-0.2,1.6,0.3l4.5,5.6c0.5,0.6,0.3,1.5-0.3,1.8l-8.6,5.1        c-0.5,0.3-1.2,0.2-1.6-0.3l-4.5-5.6C544.4,274.9,544.5,274,545.2,273.6z" />
						<path class="st6" d="M532.9,280.8l8.6-5.1c0.5-0.3,1.2-0.2,1.6,0.3l4.5,5.6c0.5,0.6,0.3,1.5-0.3,1.8l-8.6,5.1        c-0.5,0.3-1.2,0.2-1.6-0.3l-4.5-5.6C532.1,282,532.2,281.1,532.9,280.8z" />
						<path class="st6" d="M520.6,287.9l8.6-5.1c0.5-0.3,1.2-0.2,1.6,0.3l4.5,5.6c0.5,0.6,0.3,1.5-0.3,1.8l-8.6,5.1        c-0.5,0.3-1.2,0.2-1.6-0.3l-4.5-5.6C519.8,289.1,520,288.3,520.6,287.9z" />
						<path class="st6" d="M508.3,295l8.6-5.1c0.5-0.3,1.2-0.2,1.6,0.3l4.5,5.6c0.5,0.6,0.3,1.5-0.3,1.8l-8.6,5.1        c-0.5,0.3-1.2,0.2-1.6-0.3l-4.5-5.6C507.5,296.3,507.7,295.4,508.3,295z" />
					</g>
					<line class="st7" x1="533.9" y1="331.6" x2="533.9" y2="333.2" />
				</g>
				<polygon class="st4" points="511.4,320.4 515,322.3 515,309.5 511.4,305.1     " />
				<polygon class="st4" points="516.1,321.7 515,322.3 515,309.5 516.2,310.9     " />
			</g>
		</g>
		<g>
			<g>
				<path class="st0" d="M800.7,242.8c0-0.3-0.1-0.6-0.2-0.8c-0.3-0.7-1.5-3.2-1.6-3.4c-0.6-1.1-2.5-2-4.7-2c-2.4,0-4.4,0.9-4.8,2.1      c-0.1,0.2-1.5,3.2-1.6,3.3c-0.1,0.3-0.2,0.5-0.2,0.8c0,0.2,0,0.8,0,1c0,2,2.9,3.6,6.6,3.6s6.6-1.6,6.6-3.6      C800.7,243.6,800.7,242.9,800.7,242.8z" />
				<path class="st0" d="M798.9,238.5c-0.6-1.1-2.5-2-4.7-2c-2.4,0-4.4,0.9-4.8,2.1c-0.1,0.2-1.5,3.2-1.6,3.3      c-0.1,0.3-0.2,0.5-0.2,0.8c0,2,2.9,3.6,6.6,3.6s6.6-1.6,6.6-3.6c0-0.3-0.1-0.6-0.2-0.8C800.2,241.2,799,238.7,798.9,238.5z" />
				<ellipse class="st0" cx="794.1" cy="239.2" rx="4.9" ry="2.7" />
				<path class="st0" d="M797.4,238.2c0,1-1.5,1.8-3.3,1.8s-3.3-0.8-3.3-1.8s0.6-3.3,3.3-3.3C796.6,235,797.4,237.2,797.4,238.2z" />
				<path class="st8" d="M791.9,239.4c0-0.7,0.4-2.3,2.3-2.3c1.7,0,2.3,1.6,2.3,2.3" />
			</g>
		</g>
		<g>
			<g>
				<path class="st0" d="M695.5,301.4c0-0.3-0.1-0.6-0.2-0.8c-0.3-0.7-1.5-3.2-1.6-3.4c-0.6-1.1-2.5-2-4.7-2c-2.4,0-4.4,0.9-4.8,2.1      c-0.1,0.2-1.5,3.2-1.6,3.3c-0.1,0.3-0.2,0.5-0.2,0.8c0,0.2,0,0.8,0,1c0,2,2.9,3.6,6.6,3.6s6.6-1.6,6.6-3.6      C695.5,302.2,695.5,301.6,695.5,301.4z" />
				<path class="st0" d="M693.7,297.1c-0.6-1.1-2.5-2-4.7-2c-2.4,0-4.4,0.9-4.8,2.1c-0.1,0.2-1.5,3.2-1.6,3.3      c-0.1,0.3-0.2,0.5-0.2,0.8c0,2,2.9,3.6,6.6,3.6s6.6-1.6,6.6-3.6c0-0.3-0.1-0.6-0.2-0.8C695,299.9,693.8,297.3,693.7,297.1z" />
				<ellipse class="st0" cx="688.9" cy="297.8" rx="4.9" ry="2.7" />
				<path class="st0" d="M692.2,296.9c0,1-1.5,1.8-3.3,1.8s-3.3-0.8-3.3-1.8s0.6-3.3,3.3-3.3C691.4,293.6,692.2,295.9,692.2,296.9z" />
				<path class="st8" d="M686.6,298.1c0-0.7,0.4-2.3,2.3-2.3c1.7,0,2.3,1.6,2.3,2.3" />
			</g>
		</g>
	</g>
	<g id="Capa_4">
		<g>
			<polygon class="st1" points="843.7,234.4 860.2,243.4 876.3,234.4 860,225.4    " />
			<polygon class="st1" points="843.7,237.3 843.7,234.4 860.2,243.4 860.2,246.4    " />
			<polygon class="st1" points="876.3,237.3 860.2,246.4 860.2,243.4 876.3,234.4    " />
		</g>
		<g>
			<g>
				<polygon class="st3" points="850.9,234.4 860.1,239.5 869.1,234.4 860,229.3     " />
				<polygon class="st0" points="854.4,234.4 858.2,226.4 858.2,234.4     " />
				<polygon class="st0" points="866,234.4 862.2,226.4 862.2,234.4     " />
			</g>
			<g>
				<path class="st0" d="M860.2,100c-1.1,0-2-0.3-2-0.7v135.1c0,0.4,0.9,0.7,2,0.7s2-0.3,2-0.7V99.3C862.2,99.7,861.3,100,860.2,100      z" />
				<ellipse class="st3" cx="860.2" cy="99.3" rx="2" ry="0.7" />
			</g>
			<line class="st3" x1="860" y1="227.4" x2="860" y2="236.6" />
			<g>
				<path class="st0" d="M860.2,40.3c-0.7,0-1.3-0.2-1.3-0.4V99c0,0.2,0.6,0.4,1.3,0.4s1.3-0.2,1.3-0.4V39.9      C861.5,40.1,860.9,40.3,860.2,40.3z" />
				<ellipse class="st3" cx="860.2" cy="39.9" rx="1.3" ry="0.4" />
			</g>
		</g>
		<path class="st3" d="M858.2,151c0,0.5,0.9,0.9,2,0.9s2-0.4,2-0.9" />
		<path class="st8" d="M858.2,107.2c0,0.5,0.9,0.9,2,0.9s2-0.4,2-0.9" />
		<path class="st8" d="M858.2,110.7c0,0.5,0.9,0.9,2,0.9s2-0.4,2-0.9" />
		<path class="st8" d="M858.2,166.4c0,0.5,0.9,0.9,2,0.9s2-0.4,2-0.9" />
		<path class="st8" d="M859,90.7c0,0.3,0.6,0.6,1.3,0.6s1.3-0.2,1.3-0.6" />
		<path class="st8" d="M858.2,188.7c0,0.5,0.9,0.9,2,0.9s2-0.4,2-0.9" />
		<path class="st8" d="M858.2,197.1c0,0.5,0.9,0.9,2,0.9s2-0.4,2-0.9" />
		<g>
			<g>
				<polygon class="st1" points="850.4,164.3 850.4,166.4 879.4,182.8 879.4,180.3     " />
				<polygon class="st1" points="851.6,163.5 850.4,164.3 879.4,180.3 880.5,179.6     " />
			</g>
			<polygon class="st1" points="880.5,182.1 879.4,182.8 879.4,180.3 880.5,179.6    " />
		</g>
		<g>
			<g>
				<path class="st1" d="M880.4,178.4c-1,0-1.8-0.4-1.8-0.8v5c0,0.4,0.8,0.8,1.8,0.8s1.8-0.4,1.8-0.8v-5      C882.2,178.1,881.4,178.4,880.4,178.4z" />
				<ellipse class="st8" cx="880.4" cy="177.6" rx="1.8" ry="0.8" />
			</g>
		</g>
		<g>
			<polygon class="st1" points="857.9,195.2 856.9,194.7 856.9,192.5 868.2,186.2 869.3,186.8 857.9,193.1    " />
			<polygon class="st1" points="864.8,215.3 857.9,211.4 857.9,193.1 869.3,186.8 876.2,190.7 876.2,209.4    " />
			<polygon class="st1" points="876.2,190.7 864.8,197 864.8,215.3 876.2,209.4    " />
			<polyline class="st8" points="874.6,189.8 863.3,196 863.3,214.4    " />
			<polyline class="st8" points="857.9,208.1 856.9,208.6 856.9,210.8 857.9,211.4    " />
		</g>
		<g>
			<polygon class="st0" points="851.8,131.9 869,122.2 881.2,143 864.2,153.2    " />
			<polygon class="st0" points="850.8,133.1 851.8,131.9 864.2,153.2 863.2,154.2    " />
			<polygon class="st0" points="880.3,144 881.2,143 864.2,153.2 863.2,154.2    " />
			<path class="st1" d="M859.8,129l-5.2,2.9c-0.5,0.3-0.7,1-0.4,1.5l4.2,7.1c0.3,0.5,1,0.7,1.5,0.4l5.1-3c0.5-0.3,0.7-1,0.4-1.5     l-4.1-7C861,128.9,860.3,128.7,859.8,129z" />
			<path class="st1" d="M867.9,124.4l-5.2,2.9c-0.5,0.3-0.7,1-0.4,1.5l4.2,7.1c0.3,0.5,1,0.7,1.5,0.4l5.1-3c0.5-0.3,0.7-1,0.4-1.5     l-4.1-7C869,124.3,868.4,124.1,867.9,124.4z" />
			<path class="st1" d="M865.4,138.8l-5.2,2.9c-0.5,0.3-0.7,1-0.4,1.5l4.2,7.1c0.3,0.5,1,0.7,1.5,0.4l5.1-3c0.5-0.3,0.7-1,0.4-1.5     l-4.1-7C866.6,138.7,865.9,138.5,865.4,138.8z" />
			<path class="st1" d="M873.4,134.3l-5.2,2.9c-0.5,0.3-0.7,1-0.4,1.5l4.2,7.1c0.3,0.5,1,0.7,1.5,0.4l5.1-3c0.5-0.3,0.7-1,0.4-1.5     l-4.1-7C874.6,134.1,873.9,134,873.4,134.3z" />
		</g>
		<g>
			<g>
				<path class="st0" d="M844.4,28.8c0.8,0,1.4-0.3,1.4-0.6v4c0,0.3-0.6,0.6-1.4,0.6c-0.8,0-1.4-0.3-1.4-0.6v-4      C843,28.6,843.6,28.8,844.4,28.8z" />
				<ellipse class="st3" cx="844.4" cy="28.2" rx="1.4" ry="0.6" />
			</g>
			<g>
				<path class="st0" d="M844.4,26.8c0.5,0,0.9-0.2,0.9-0.4v1.4c0,0.2-0.4,0.4-0.9,0.4s-0.9-0.2-0.9-0.4v-1.4      C843.5,26.6,843.9,26.8,844.4,26.8z" />
				<ellipse class="st3" cx="844.4" cy="26.4" rx="0.9" ry="0.4" />
			</g>
			<g>
				<polygon class="st0" points="837,17.3 835.3,18.1 835.3,30.3 838.1,28.7 839.1,25.5     " />
				<line class="st3" x1="835.3" y1="27.1" x2="851.5" y2="18.7" />
				<path class="st0" d="M844.4,21.2c0.2,0,0.4-0.1,0.4-0.2v5.1c0,0.1-0.2,0.2-0.4,0.2s-0.4-0.1-0.4-0.2V21      C843.9,21.2,844.1,21.2,844.4,21.2z" />
				<ellipse class="st3" cx="844.4" cy="21.1" rx="0.4" ry="0.2" />
				<path class="st0" d="M844.8,22.1c0,0.1-0.2,0.2-0.4,0.2s-0.4-0.1-0.4-0.2" />
				<path class="st0" d="M848.2,19.9" />
			</g>
		</g>
		<g>
			<polygon class="st0" points="844.7,29.9 844.7,31.7 878.7,50.6 878.7,48.6    " />
			<polygon class="st0" points="845.5,29.4 844.7,29.9 878.7,48.6 879.5,48.1    " />
		</g>
		<line class="st3" x1="860.2" y1="38" x2="860.2" y2="15.1" />
		<g>
			<g>
				<path class="st0" d="M879.2,48c0.8,0,1.4-0.3,1.4-0.6v4c0,0.3-0.6,0.6-1.4,0.6c-0.8,0-1.4-0.3-1.4-0.6v-4      C877.8,47.7,878.4,48,879.2,48z" />
				<ellipse class="st3" cx="879.2" cy="47.4" rx="1.4" ry="0.6" />
			</g>
			<g>
				<path class="st0" d="M879.2,45.9c0.5,0,0.9-0.2,0.9-0.4V47c0,0.2-0.4,0.4-0.9,0.4s-0.9-0.2-0.9-0.4v-1.4      C878.3,45.8,878.7,45.9,879.2,45.9z" />
				<ellipse class="st3" cx="879.2" cy="45.5" rx="0.9" ry="0.4" />
			</g>
			<g>
				<polyline class="st3" points="872.6,44.7 879.3,41.3 880.8,35.4     " />
				<path class="st0" d="M879.2,41c0.2,0,0.4-0.1,0.4-0.2v4.5c0,0.1-0.2,0.2-0.4,0.2s-0.4-0.1-0.4-0.2v-4.5      C878.8,40.9,879,41,879.2,41z" />
				<path class="st0" d="M883,39.1" />
				<circle class="st0" cx="880.9" cy="34.5" r="2" />
				<circle class="st0" cx="872.2" cy="44.7" r="2" />
				<line class="st3" x1="885.7" y1="46.3" x2="879.3" y2="41.3" />
				<circle class="st0" cx="879.3" cy="41.3" r="1.2" />
				<circle class="st0" cx="885.7" cy="46.3" r="2" />
			</g>
		</g>
		<polyline class="st8" points="864.8,197.2 858.8,193.8 857.9,193.3   " />
		<g>
			<g>
				<path class="st0" d="M887.6,174.4c0-0.3-0.1-0.6-0.2-0.9c-0.3-0.7-1.7-3.5-1.8-3.8c-0.6-1.2-2.7-2.2-5.2-2.2      c-2.6,0-4.8,1-5.3,2.4c-0.1,0.2-1.7,3.5-1.7,3.6c-0.1,0.3-0.2,0.6-0.2,0.9c0,0.2,0,0.9,0,1.1c0,2.2,3.2,3.9,7.2,3.9      s7.2-1.8,7.2-3.9C887.6,175.3,887.6,174.6,887.6,174.4z" />
				<path class="st0" d="M885.7,169.7c-0.6-1.2-2.7-2.2-5.2-2.2c-2.6,0-4.8,1-5.3,2.4c-0.1,0.2-1.7,3.5-1.7,3.6      c-0.1,0.3-0.2,0.6-0.2,0.9c0,2.2,3.2,3.9,7.2,3.9s7.2-1.8,7.2-3.9c0-0.3-0.1-0.6-0.2-0.9C887.1,172.8,885.8,169.9,885.7,169.7z" />
				<ellipse class="st0" cx="880.4" cy="170.5" rx="5.4" ry="2.9" />
				<path class="st0" d="M884,169.4c0,1.1-1.6,2-3.6,2s-3.6-0.9-3.6-2s0.7-3.6,3.6-3.6C883.2,165.8,884,168.3,884,169.4z" />
				<path class="st8" d="M877.9,170.8c0-0.7,0.5-2.5,2.5-2.5c1.9,0,2.5,1.7,2.5,2.5" />
			</g>
		</g>
		<g>
			<g>
				<polygon class="st1" points="867.7,89.4 867.7,91.6 838.8,107.9 838.8,105.4     " />
				<polygon class="st1" points="866.6,88.7 867.7,89.4 838.8,105.4 837.7,104.7     " />
			</g>
			<polygon class="st1" points="837.7,107.3 838.8,107.9 838.8,105.4 837.7,104.7    " />
		</g>
		<g>
			<g>
				<polygon class="st0" points="489.6,372.2 511.6,384.1 533.2,372.2 511.4,360.1     " />
				<polygon class="st0" points="489.6,375.9 489.6,372.2 511.6,384.1 511.6,388.1     " />
				<polygon class="st0" points="533.2,376 511.6,388.1 511.6,384.1 533.2,372.2     " />
			</g>
			<g>
				<g>
					<polygon class="st3" points="499.2,372.1 511.5,379 523.6,372.1 511.4,365.2      " />
					<polygon class="st0" points="503.9,372.2 509,361.4 509,372.1      " />
					<polygon class="st0" points="519.5,372.2 514.4,361.4 514.4,372.1      " />
				</g>
				<g>
					<path class="st0" d="M511.7,192.5c-1.5,0-2.7-0.4-2.7-0.9V372c0,0.5,1.2,0.9,2.7,0.9s2.7-0.4,2.7-0.9V191.6       C514.4,192.1,513.2,192.5,511.7,192.5z" />
					<ellipse class="st3" cx="511.7" cy="191.6" rx="2.7" ry="0.9" />
				</g>
				<line class="st3" x1="511.4" y1="362.8" x2="511.4" y2="375" />
				<g>
					<path class="st0" d="M511.7,108.9c-0.9,0-1.7-0.2-1.7-0.5v82.9c0,0.3,0.8,0.5,1.7,0.5s1.7-0.2,1.7-0.5v-82.9       C513.4,108.6,512.6,108.9,511.7,108.9z" />
					<ellipse class="st3" cx="511.7" cy="108.3" rx="1.7" ry="0.5" />
				</g>
			</g>
			<path class="st8" d="M509,260.7c0,0.7,1.2,1.2,2.7,1.2s2.7-0.5,2.7-1.2" />
			<path class="st8" d="M509,202.2c0,0.7,1.2,1.2,2.7,1.2s2.7-0.5,2.7-1.2" />
			<path class="st8" d="M509,206.9c0,0.7,1.2,1.2,2.7,1.2s2.7-0.5,2.7-1.2" />
			<path class="st8" d="M509,281.3c0,0.7,1.2,1.2,2.7,1.2s2.7-0.5,2.7-1.2" />
			<path class="st8" d="M509,311.1c0,0.7,1.2,1.2,2.7,1.2s2.7-0.5,2.7-1.2" />
			<path class="st8" d="M509,322.3c0,0.7,1.2,1.2,2.7,1.2s2.7-0.5,2.7-1.2" />
			<g>
				<g>
					<polygon class="st0" points="498.6,278.4 498.6,281.3 537.3,303.1 537.3,299.8      " />
					<polygon class="st0" points="500.1,277.4 498.6,278.4 537.3,299.8 538.8,298.9      " />
				</g>
				<polygon class="st0" points="538.8,302.3 537.3,303.1 537.3,299.8 538.8,298.9     " />
			</g>
			<g>
				<g>
					<path class="st1" d="M538.7,297.3c-1.3,0-2.4-0.5-2.4-1v6.7c0,0.6,1.1,1,2.4,1s2.4-0.5,2.4-1v-6.7       C541.1,296.8,540,297.3,538.7,297.3z" />
					<ellipse class="st8" cx="538.7" cy="296.3" rx="2.4" ry="1" />
				</g>
			</g>
			<g>
				<polygon class="st1" points="508.6,319.8 507.2,319 507.2,316.1 522.4,307.8 523.8,308.5 508.6,316.9     " />
				<polygon class="st0" points="517.9,346.6 508.6,341.4 508.6,316.9 523.8,308.6 533.1,313.7 533.1,338.7     " />
				<polygon class="st0" points="533.1,313.7 517.9,322.1 517.9,346.6 533.1,338.7     " />
				<polyline class="st8" points="531,312.5 515.8,320.9 515.8,345.3     " />
				<polyline class="st8" points="508.6,336.9 507.2,337.7 507.2,340.6 508.6,341.3     " />
			</g>
			<g>
				<polygon class="st0" points="500.5,235.3 523.4,222.3 539.8,250 517,263.6     " />
				<polygon class="st0" points="499.2,236.7 500.5,235.3 517,263.6 515.7,265     " />
				<polygon class="st0" points="538.5,251.3 539.8,250 517,263.6 515.7,265     " />
				<path class="st1" d="M511.2,231.3l-7,3.9c-0.7,0.4-0.9,1.3-0.5,2l5.5,9.4c0.4,0.7,1.3,0.9,2,0.5l6.8-4c0.7-0.4,0.9-1.3,0.5-2      l-5.4-9.3C512.7,231.1,511.9,230.9,511.2,231.3z" />
				<path class="st1" d="M521.9,225.2l-7,3.9c-0.7,0.4-0.9,1.3-0.5,2l5.5,9.4c0.4,0.7,1.3,0.9,2,0.5l6.8-4c0.7-0.4,0.9-1.3,0.5-2      l-5.4-9.3C523.4,225,522.6,224.8,521.9,225.2z" />
				<path class="st1" d="M518.6,244.4l-7,3.9c-0.7,0.4-0.9,1.3-0.5,2l5.5,9.4c0.4,0.7,1.3,0.9,2,0.5l6.8-4c0.7-0.4,0.9-1.3,0.5-2      l-5.4-9.3C520.2,244.3,519.3,244,518.6,244.4z" />
				<path class="st1" d="M529.3,238.3l-7,3.9c-0.7,0.4-0.9,1.3-0.5,2l5.5,9.4c0.4,0.7,1.3,0.9,2,0.5l6.8-4c0.7-0.4,0.9-1.3,0.5-2      l-5.4-9.3C530.9,238.2,530,238,529.3,238.3z" />
			</g>
			<polyline class="st8" points="517.9,322.4 509.7,317.8 508.6,317.1    " />
			<g>
				<g>
					<path class="st0" d="M547.7,293c0-0.4-0.1-0.8-0.2-1.1c-0.4-0.9-2.1-4.4-2.2-4.7c-0.8-1.5-3.4-2.7-6.4-2.7       c-3.2,0-5.9,1.2-6.6,2.9c-0.1,0.2-2.1,4.4-2.1,4.5c-0.1,0.3-0.2,0.7-0.2,1.1c0,0.2,0,1.1,0,1.3c0,2.7,4,4.8,8.9,4.8       s8.9-2.2,8.9-4.8C547.7,294.1,547.7,293.2,547.7,293z" />
					<path class="st0" d="M545.2,287.2c-0.8-1.5-3.4-2.7-6.4-2.7c-3.2,0-5.9,1.2-6.6,2.9c-0.1,0.2-2.1,4.4-2.1,4.5       c-0.1,0.3-0.2,0.7-0.2,1.1c0,2.7,4,4.8,8.9,4.8s8.9-2.2,8.9-4.8c0-0.4-0.1-0.8-0.2-1.1C547,290.9,545.4,287.5,545.2,287.2z" />
					<ellipse class="st0" cx="538.8" cy="288.1" rx="6.7" ry="3.6" />
					<path class="st0" d="M543.2,286.8c0,1.3-2,2.4-4.5,2.4s-4.5-1.1-4.5-2.4s0.8-4.4,4.5-4.4C542.1,282.4,543.2,285.5,543.2,286.8z       " />
					<path class="st8" d="M535.7,288.5c0-0.9,0.6-3.1,3.1-3.1c2.3,0,3.1,2.1,3.1,3.1" />
				</g>
			</g>
			<g>
				<g>
					<g>
						<g>
							<path class="st0" d="M511.7,104c-3.8,0-6.8-1.3-6.8-3v8.2c0,1.7,3.1,3,6.8,3c3.8,0,6.8-1.3,6.8-3V101         C518.5,102.6,515.5,104,511.7,104z" />
							<ellipse class="st3" cx="511.7" cy="101" rx="6.8" ry="3" />
						</g>
					</g>
					<g>
						<g>
							<path class="st9" d="M511.7,102.3c-3.1,0-5.5-1.1-5.5-2.5v-6.6c0-1.4,2.3-2.5,5.5-2.5c3.1,0,5.5,1.1,5.5,2.5v6.6         C517.2,101.2,514.8,102.3,511.7,102.3z" />
							<path class="st10" d="M511.7,90.9c2.8,0,5.1,1,5.1,2.1v6.6c0,1.2-2.3,2.1-5.1,2.1c-2.8,0-5.1-1-5.1-2.1V93         C506.6,91.9,508.9,90.9,511.7,90.9 M511.7,90.2c-2.9,0-5.8,1-5.8,2.9v6.6c0,1.9,2.9,2.9,5.8,2.9c2.9,0,5.8-1,5.8-2.9v-6.6         C517.5,91.2,514.6,90.2,511.7,90.2L511.7,90.2z" />
						</g>
					</g>
					<path class="st3" d="M504.9,107.1c0,1.7,3.1,3,6.8,3c3.8,0,6.8-1.3,6.8-3" />
					<path class="st3" d="M504.9,105.2c0,1.7,3.1,3,6.8,3c3.8,0,6.8-1.3,6.8-3" />
					<path class="st3" d="M504.9,103.2c0,1.7,3.1,3,6.8,3c3.8,0,6.8-1.3,6.8-3" />
				</g>
				<g>
					<path class="st9" d="M511.7,97.4c-3.8,0-6.8-1.3-7.2-3c0-0.1,0-0.1,0-0.2V84c0-1.9,3.2-3.4,7.2-3.4s7.2,1.5,7.2,3.4v10.2       c0,0.1,0,0.1,0,0.2C518.5,96.1,515.5,97.4,511.7,97.4z M512.6,93.5c1.8-0.1,3.4-0.5,4.4-1.2v-3c-1.1,0.6-2.7,1-4.4,1.1V93.5z        M506.3,92.4c1,0.6,2.7,1.1,4.4,1.2v-3.1c-1.7-0.1-3.3-0.5-4.4-1.1V92.4z" />
					<path class="st10" d="M511.7,81.1c3.8,0,6.8,1.3,6.8,3v3.1l0,0V91l0,0v3l0,0v0.2l0,0c-0.2,1.6-3.2,2.8-6.8,2.8       c-3.6,0-6.6-1.2-6.8-2.8l0,0v-7.5V84C504.9,82.4,507.9,81.1,511.7,81.1 M512.2,93.9c2.2-0.1,4.1-0.6,5.2-1.4v-3.8       c-1.1,0.8-3,1.3-5.2,1.4V93.9 M511.1,93.9v-3.8c-2.2-0.1-4.1-0.6-5.2-1.4v3.8C507.1,93.3,509,93.9,511.1,93.9 M511.7,80.3       c-4.3,0-7.6,1.6-7.6,3.7v2.7v7.5c0,0.1,0,0.2,0.1,0.3c0.5,2.1,4.1,3.3,7.5,3.3c3.4,0,7-1.1,7.5-3.3c0-0.1,0.1-0.2,0.1-0.3V94       v-3v-3.8V84C519.3,81.9,516,80.3,511.7,80.3L511.7,80.3z M506.7,92.2V90c1,0.4,2.3,0.7,3.7,0.8v2.3       C508.9,93,507.6,92.7,506.7,92.2L506.7,92.2z M513,90.8c1.4-0.1,2.7-0.4,3.7-0.8v2.2c-0.9,0.5-2.2,0.8-3.7,1V90.8L513,90.8z" />
				</g>
				<g>
					<path class="st9" d="M511.7,84.8c-2.8,0-4.6-1-4.6-2.4c0-1.6,1-4.6,4.6-4.6c3.4,0,4.6,3.1,4.6,4.6       C516.3,83.8,514.4,84.8,511.7,84.8z" />
					<path class="st10" d="M511.7,78.2c3.2,0,4.2,2.9,4.2,4.2s-1.9,2-4.2,2s-4.2-0.8-4.2-2S508.2,78.2,511.7,78.2 M511.7,77.5       c-3.6,0-5,3-5,4.9c0,1.7,2,2.8,5,2.8s5-1.1,5-2.8C516.7,80.9,515.4,77.5,511.7,77.5L511.7,77.5z" />
				</g>
			</g>
		</g>
		<g>
			<g>
				<path class="st1" d="M838.1,104c-0.9,0-1.6-0.3-1.6-0.7v4.5c0,0.4,0.7,0.7,1.6,0.7s1.6-0.3,1.6-0.7v-4.5      C839.7,103.7,838.9,104,838.1,104z" />
				<ellipse class="st8" cx="838.1" cy="103.3" rx="1.6" ry="0.7" />
			</g>
		</g>
		<g>
			<g>
				<g>
					<path class="st0" d="M838.3,98.3c-2.2,0-4-0.8-4-1.8v6.8c0,1,1.8,1.8,4,1.8s4-0.8,4-1.8v-6.8C842.3,97.5,840.5,98.3,838.3,98.3       z" />
					<ellipse class="st3" cx="838.3" cy="96.5" rx="4" ry="1.8" />
				</g>
			</g>
			<g>
				<g>
					<path class="st0" d="M838.3,96.2c-1.6,0-3-0.6-3-1.3v0.9c0,0.7,1.3,1.3,3,1.3c1.6,0,3-0.6,3-1.3v-0.9       C841.2,95.6,839.9,96.2,838.3,96.2z" />
					<ellipse class="st0" cx="838.3" cy="94.9" rx="3" ry="1.3" />
				</g>
			</g>
			<path class="st8" d="M834.3,102.2c0,1,1.8,1.8,4,1.8s4-0.8,4-1.8" />
			<path class="st8" d="M834.3,101.1c0,1,1.8,1.8,4,1.8s4-0.8,4-1.8" />
			<path class="st8" d="M834.3,99.9c0,1,1.8,1.8,4,1.8s4-0.8,4-1.8" />
			<path class="st8" d="M834.3,98.8c0,1,1.8,1.8,4,1.8s4-0.8,4-1.8" />
			<path class="st8" d="M834.3,97.6c0,1,1.8,1.8,4,1.8s4-0.8,4-1.8" />
		</g>
	</g>
	<g id="Capa_13">
	</g>
	<g id="Capa_7">
		<ellipse class="st2" cx="576.9" cy="128.7" rx="14.3" ry="7.8" />
		<polygon class="st1" points="569.5,125.3 576.9,129.3 584.2,125.3 576.9,121.2   " />
		<polygon class="st1" points="569.4,127.6 569.4,125.3 576.8,129.3 576.8,131.7   " />
		<polygon class="st1" points="584.1,127.6 576.8,131.7 576.8,129.3 584.1,125.3   " />
		<g>
			<path class="st0" d="M576.9,108.1c-1.2,0-2.2-0.3-2.2-0.7V125c0,0.4,1,0.7,2.2,0.7s2.2-0.3,2.2-0.7v-17.6     C579,107.8,578.1,108.1,576.9,108.1z" />
			<ellipse class="st0" cx="576.9" cy="107.3" rx="2.2" ry="0.7" />
		</g>
		<g>
			<g>
				<path class="st0" d="M576.9,99.7c-2.9,0-5.3-1.2-5.3-2.6v10.3c0,1.5,2.4,2.6,5.3,2.6c2.9,0,5.3-1.2,5.3-2.6V97.1      C582.2,98.5,579.8,99.7,576.9,99.7z" />
				<ellipse class="st3" cx="576.9" cy="97.1" rx="5.3" ry="2.6" />
			</g>
		</g>
		<g>
			<g>
				<path class="st0" d="M577,97c-2.2,0-3.9-0.8-3.9-1.9v1.3c0,1,1.8,1.9,3.9,1.9c2.2,0,3.9-0.8,3.9-1.9v-1.3      C580.9,96.2,579.2,97,577,97z" />
				<ellipse class="st0" cx="577" cy="95.2" rx="3.9" ry="1.9" />
			</g>
		</g>
	</g>
	<g id="Capa_6">
	</g>

	<g id="Capa_12">
	</g>
</g>
</g></svg>